<?xml version="1.0" standalone="no"?><!DOCTYPE svg PUBLIC "-//W3C//DTD SVG 1.1//EN" "http://www.w3.org/Graphics/SVG/1.1/DTD/svg11.dtd"><svg t="1690944476496" class="icon" viewBox="0 0 1024 1024" version="1.1" xmlns="http://www.w3.org/2000/svg" p-id="5497" xmlns:xlink="http://www.w3.org/1999/xlink" width="200" height="200"><path d="M341.333333 238.933333C251.733333 298.666667 192 401.066667 192 512c0 174.933333 145.066667 320 320 320s320-145.066667 320-320c0-110.933333-59.733333-213.333333-149.333333-273.066667-8.533333-4.266667-21.333333-4.266667-29.866667 8.533334-4.266667 8.533333-4.266667 21.333333 8.533333 29.866666 81.066667 51.2 132.266667 136.533333 132.266667 234.666667 0 153.6-123.733333 277.333333-277.333333 277.333333S238.933333 665.6 238.933333 512c0-98.133333 51.2-183.466667 132.266667-234.666667 8.533333-4.266667 12.8-21.333333 8.533333-29.866666s-25.6-12.8-38.4-8.533334z m170.666667-46.933333c12.8 0 21.333333 8.533333 21.333333 21.333333v277.333334c0 12.8-8.533333 21.333333-21.333333 21.333333s-21.333333-8.533333-21.333333-21.333333V213.333333c0-12.8 8.533333-21.333333 21.333333-21.333333z" p-id="5498"></path></svg>