<?xml version="1.0" encoding="UTF-8"?>
<svg width="26px" height="24px" viewBox="0 0 26 24" version="1.1" xmlns="http://www.w3.org/2000/svg" xmlns:xlink="http://www.w3.org/1999/xlink">
    <title>星形</title>
    <g id="企业" stroke="none" stroke-width="1" fill="none" fill-rule="evenodd">
        <g id="1.2.5企业-评价详情2" transform="translate(-51.000000, -3338.000000)" fill="#FFFFFF">
            <g id="编组-8" transform="translate(48.000000, 3275.000000)">
                <g id="编组-12" transform="translate(0.000000, 56.000000)">
                    <g id="矩形" transform="translate(0.000000, 4.000000)">
                        <path d="M16,23 L9.56447862,26.3833538 C9.07563403,26.6403546 8.47100688,26.4524081 8.21400607,25.9635635 C8.111667,25.768903 8.07635233,25.545935 8.11352917,25.3291773 L9.34260439,18.163119 L9.34260439,18.163119 L4.13615822,13.0880882 C3.74067464,12.702587 3.73258234,12.0694738 4.11808355,11.6739902 C4.27159216,11.5165066 4.47273457,11.4140194 4.6903716,11.3823949 L11.8855032,10.336881 L11.8855032,10.336881 L15.1032639,3.81698575 C15.3476862,3.32173209 15.9473121,3.11839309 16.4425657,3.36281539 C16.6397783,3.46014562 16.7994058,3.61977315 16.8967361,3.81698575 L20.1144968,10.336881 L20.1144968,10.336881 L27.3096284,11.3823949 C27.8561733,11.4618125 28.2348547,11.9692553 28.1554371,12.5158002 C28.1238126,12.7334372 28.0213254,12.9345796 27.8638418,13.0880882 L22.6573956,18.163119 L22.6573956,18.163119 L23.8864708,25.3291773 C23.9798318,25.8735138 23.614244,26.3904697 23.0699076,26.4838307 C22.8531499,26.5210076 22.6301819,26.4856929 22.4355214,26.3833538 L16,23 L16,23 Z" id="星形"></path>
                    </g>
                </g>
            </g>
        </g>
    </g>
</svg>