<?xml version="1.0" encoding="UTF-8"?>
<svg width="24px" height="24px" viewBox="0 0 24 24" version="1.1" xmlns="http://www.w3.org/2000/svg" xmlns:xlink="http://www.w3.org/1999/xlink">
    <title>icon_home</title>
    <g id="综合网格管理平台" stroke="none" stroke-width="1" fill="none" fill-rule="evenodd" opacity="0.704613095">
        <g id="4.7成绩确认-个人成绩-我的申诉-详情展开" transform="translate(-1400.000000, -16.000000)">
            <g id="top" transform="translate(200.000000, 12.000000)">
                <g id="编组-2" transform="translate(809.000000, 0.000000)">
                    <g id="icon_home" transform="translate(391.000000, 4.000000)">
                        <rect id="矩形" fill-opacity="0" fill="#3B4155" x="0" y="0" width="24" height="24"></rect>
                        <path d="M10.2562854,6.24551042 L5.83752361,9.40176885 C5.31193137,9.77719188 5,10.3833336 5,11.0292358 L5,17 C5,18.6568542 6.34314575,20 8,20 L16,20 C17.6568542,20 19,18.6568542 19,17 L19,11.0292358 C19,10.3833336 18.6880686,9.77719188 18.1624764,9.40176885 L13.7437146,6.24551042 C12.700622,5.5004443 11.299378,5.5004443 10.2562854,6.24551042 Z" id="路径-3" stroke="#3B4155"></path>
                        <path d="M9.75,17.5 L9.75,14.7311072 C9.75,13.9824692 10.190886,13.3040507 10.875,13 C11.5912238,12.6816783 12.4087762,12.6816783 13.125,13 C13.809114,13.3040507 14.25,13.9824692 14.25,14.7311072 L14.25,17.5 L14.25,17.5" id="路径-4" stroke="#3B4155" stroke-linecap="round"></path>
                    </g>
                </g>
            </g>
        </g>
    </g>
</svg>