<?xml version="1.0" encoding="UTF-8"?>
<svg width="32px" height="32px" viewBox="0 0 32 32" version="1.1" xmlns="http://www.w3.org/2000/svg" xmlns:xlink="http://www.w3.org/1999/xlink">
    <title>logo</title>
    <defs>
        <linearGradient x1="121.90881%" y1="-5.92315353e-13%" x2="121.90881%" y2="100%" id="linearGradient-1">
            <stop stop-color="#7DE5FF" offset="0%"></stop>
            <stop stop-color="#1163FF" offset="99.9480988%"></stop>
        </linearGradient>
        <linearGradient x1="121.90881%" y1="-5.92315353e-13%" x2="121.90881%" y2="100%" id="linearGradient-2">
            <stop stop-color="#7DE5FF" offset="0%"></stop>
            <stop stop-color="#1163FF" offset="99.9480988%"></stop>
        </linearGradient>
    </defs>
    <g id="0-1企业搜索" stroke="none" stroke-width="1" fill="none" fill-rule="evenodd">
        <g id="0-1-0企业搜索" transform="translate(-24.000000, -10.000000)">
            <g id="编组" transform="translate(24.000000, 10.000000)">
                <rect id="矩形" stroke="#979797" fill="#D8D8D8" opacity="0" x="0.5" y="0.5" width="31" height="31"></rect>
                <path d="M7.65748239,9.28 C7.87146843,9.28 8.07129648,9.38694473 8.18999458,9.56499187 L12.37328,15.84 L12.48,15.84 L12.42672,15.92 L12.48,16 L12.37328,16 L8.18999458,22.2750081 C8.07827873,22.4425819 7.89469689,22.5471722 7.69508404,22.5588971 L7.65748239,22.56 L4.39585094,22.56 C4.26949895,22.56 4.14597402,22.5225997 4.04084281,22.4525122 C3.7562315,22.2627713 3.67262369,21.8845167 3.84522277,21.5937651 L3.86333875,21.5649919 L7.62672,15.92 L3.86333875,10.2750081 C3.66727318,9.98090976 3.74674445,9.58355339 4.04084281,9.38748781 C4.14597402,9.31740034 4.26949895,9.28 4.39585094,9.28 L7.65748239,9.28 Z" id="路径" fill="url(#linearGradient-1)"></path>
                <path d="M23.8098231,5.08324212 C23.9286906,4.90620551 24.1279244,4.8 24.3411647,4.8 L27.5994068,4.8 C27.952869,4.8 28.2394068,5.08653776 28.2394068,5.44 C28.2394068,5.56706922 28.201581,5.69126233 28.1307483,5.79675788 L21.28,16 L28.1307483,26.2032421 C28.201581,26.3087377 28.2394068,26.4329308 28.2394068,26.56 C28.2394068,26.9027513 27.9699718,27.1825726 27.6313492,27.1992168 L27.5994068,27.2 L24.3411647,27.2 C24.1404679,27.2 23.9521783,27.1059218 23.8316205,26.9472572 L23.8098231,26.9167579 L16.48,16 L23.8098231,5.08324212 Z" id="路径" fill="url(#linearGradient-2)"></path>
                <path d="M13.4188353,4.8 C13.6195321,4.8 13.8078217,4.89407823 13.9283795,5.05274284 L13.9501769,5.08324212 L16.48,8.85104 L14.08,12.4256 L9.62925172,5.79675788 C9.5662893,5.70298406 9.52940646,5.59443685 9.52198759,5.48222818 L9.52059324,5.44 C9.52059324,5.09724874 9.7900282,4.81742738 10.1286508,4.80078325 L10.1605932,4.8 L13.4188353,4.8 Z" id="路径" fill="#38E685"></path>
                <path d="M13.4188353,27.2 C13.6195321,27.2 13.8078217,27.1059218 13.9283795,26.9472572 L13.9501769,26.9167579 L16.48,23.14896 L14.08,19.5744 L9.62925172,26.2032421 C9.5662893,26.2970159 9.52940646,26.4055631 9.52198759,26.5177718 L9.52059324,26.56 C9.52059324,26.9027513 9.7900282,27.1825726 10.1286508,27.1992168 L10.1605932,27.2 L13.4188353,27.2 Z" id="路径" fill="#38E6B4"></path>
            </g>
        </g>
    </g>
</svg>