<?xml version="1.0" encoding="utf-8" ?>
<svg baseProfile="full" height="200mm" version="1.1" viewBox="0,0,200,200" width="200mm" xmlns="http://www.w3.org/2000/svg" xmlns:ev="http://www.w3.org/2001/xml-events" xmlns:xlink="http://www.w3.org/1999/xlink"><defs /><rect fill="#1a1a1a" height="200" width="200" x="0" y="0" /><text alignment-baseline="middle" fill="#e1ed5e" style="dominant-baseline: central; font-size:9.0px; font-family:Arial;" text-anchor="middle" x="100.0" y="100.0">2024</text><line stroke="#e1ed5e" stroke-width="0.3" x1="100.0" x2="100.0" y1="15.0" y2="10.0" /><path d="M 100.0 14.0 a86.0,86.0 0 0,1 42.35913384403234,11.155469271406648" fill="none" id="id49" stroke="none" /><text fill="#e1ed5e" style="font-size:6.75px; font-family:Arial;" text-anchor="middle"><textPath startOffset="22.145653131862478" xlink:href="#id49">January</textPath></text><path d="M 100.0 79.0 l 0.0 -29.821782178217823 a50.82178217821782,50.82178217821782 0 0,0 0.8724234715931973,0.0074887062385829315 l -0.5119305467443426 29.817387870173675" fill="#b3ff20" stroke="none" /><path d="M 100.36049292484886 79.00309439819443 l 0.5104008737959033 -29.728292089685105 a50.73267326732673,50.73267326732673 0 0,0 0.8706371422449416,0.02242452442167322 l -1.0206513301115863 29.715149847913388" fill="#b4ff20" stroke="none" /><path d="M 101.08105385017728 79.02784411241856 l 1.535188211567166 -29.782241175575344 a50.82178217821782,50.82178217821782 0 0,0 0.8708812072154978,0.05239005083727359 l -2.0462137709151262 29.75149914691338" fill="#b3ff20" stroke="none" /><path d="M 101.80034050326958 79.07731436759882 l 4.079413700477891 -47.40897083890623 a68.58415841584159,68.58415841584159 0 0,0 1.172137352396047,0.11100262593851604 l -4.892650616258951 47.331956457462525" fill="#38ff81" stroke="none" /><path d="M 102.51750503828377 79.15144685158666 l 3.567949149024525 -29.547737276817777 a50.76237623762376,50.76237623762376 0 0,0 0.864222634213065,0.11189092233878568 l -4.074649605128382 29.482134758278594" fill="#b3ff20" stroke="none" /><path d="M 102.87502721639298 79.19773525538626 l 4.0868491548443355 -29.57040462282434 a50.851485148514854,50.851485148514854 0 0,0 0.8636880045256696,0.1269323939353795 l -4.5938622649776875 29.49589115559008" fill="#b2ff20" stroke="none" /><path d="M 103.58742460773223 79.30868818359171 l 5.089373241238224 -29.354152407153485 a50.79207920792079,50.79207920792079 0 0,0 0.8578183955130102,0.1563230870966962 l -5.592526370302288 29.262461146125425" fill="#b3ff20" stroke="none" /><path d="M 104.29559338865022 79.4440306129975 l 9.727362114892502 -46.54894906448519 a68.55445544554456,68.55445544554456 0 0,0 1.1498788436252314,0.2506107420472095 l -10.525003375136867 46.375106864304264" fill="#38ff80" stroke="none" /><path d="M 104.9986988182912 79.60360301121754 l 9.205524556457057 -37.56168158330235 a59.67326732673267,59.67326732673267 0 0,0 0.9928344638050672,0.252374638250279 l -9.848964313487519 37.3981217132168" fill="#4bff2c" stroke="none" /><path d="M 105.3480935250658 79.69241777938227 l 7.572053208756533 -28.752319381666684 a50.73267326732673,50.73267326732673 0 0,0 0.8402746353656927,0.22902058840425088 l -8.064509245056918 28.61809829911829" fill="#b4ff20" stroke="none" /><path d="M 106.04205211174951 79.88797359093562 l 8.554588633467123 -28.475443331645614 a50.73267326732673,50.73267326732673 0 0,0 0.8319176790031905,0.2577302235166159 l -9.042146945341942 28.324396520322352" fill="#b4ff20" stroke="none" /><path d="M 106.72888874123014 80.10723608172694 l 15.247071801203218 -45.075258553144884 a68.58415841584159,68.58415841584159 0 0,0 1.1120242890354353,0.386819772558875 l -16.01860186228367 44.80688034801742" fill="#38ff81" stroke="none" /><path d="M 107.40779381753099 80.34994680014964 l 10.49874031848098 -27.849156020155682 a50.76237623762376,50.76237623762376 0 0,0 0.8127485196585067,0.31438858723068264 l -10.975261100633013 27.66482754478696" fill="#b3ff20" stroke="none" /><path d="M 107.74402155503746 80.48000691201159 l 10.953354391849315 -27.609608328130705 a50.70297029702971,50.70297029702971 0 0,0 0.8062871778612722,0.32790997598181865 l -11.425696030901028 27.41751109556959" fill="#b4ff20" stroke="none" /><path d="M 108.4095320186766 80.7573450057729 l 11.90656513535399 -27.24455113044035 a50.73267326732673,50.73267326732673 0 0,0 0.7950210861705533,0.35560281958411843 l -12.372499624380175 27.036144559946376" fill="#b4ff20" stroke="none" /><path d="M 109.06512990194946 81.05736502329252 l 20.54078939593074 -42.922349692624316 a68.58415841584159,68.58415841584159 0 0,0 1.0576322269503353,0.5173409208281703 l -21.27458187214314 42.56341502169893" fill="#38ff81" stroke="none" /><path d="M 109.71004243097381 81.37971332152246 l 13.747881857715397 -26.363376188339487 a50.73267326732673,50.73267326732673 0 0,0 0.7687478113671234,0.4093149096603183 l -14.19841848486908 26.123490810956596" fill="#b4ff20" stroke="none" /><path d="M 110.02825361518725 81.54914285379988 l 14.2126027191197 -26.149588204374137 a50.76237623762376,50.76237623762376 0 0,0 0.7620540062817888,0.4226985113504292 l -14.659400913557588 25.90175677759056" fill="#b3ff20" stroke="none" /><line stroke="#e1ed5e" stroke-width="0.3" x1="143.13028292997686" x2="145.6673583964461" y1="26.7553504044142" y2="22.446841604673864" /><path d="M 143.63769802327073 25.89364864446614 a86.0,86.0 0 0,1 29.32050498858742,28.57503671076993" fill="none" id="id50" stroke="none" /><text fill="#e1ed5e" style="font-size:6.75px; font-family:Arial;" text-anchor="middle"><textPath startOffset="20.669276256404974" xlink:href="#id50">February</textPath></text><path d="M 110.65571695917076 81.90426304109057 l 24.159991917327748 -41.02894815435901 a68.61386138613861,68.61386138613861 0 0,0 1.0098236666935316,0.6063700972588717 l -24.860748340578716 40.60816405656421" fill="#38ff81" stroke="none" /><path d="M 111.8722381534696 82.67804972795209 l 35.549544796174175 -51.86784826863568 a83.88118811881188,83.88118811881188 0 0,0 1.18074718886181,0.8242532392734402 l -36.43468707620975 51.24995021355711" fill="#4dd3ff" stroke="none" /><path d="M 113.31354834802062 83.75963576809568 l 30.14850198752619 -36.77627034692904 a68.55445544554456,68.55445544554456 0 0,0 0.9036967988038921,0.7538960106526218 l -30.775373120491974 36.25331215236455" fill="#38ff80" stroke="none" /><path d="M 113.59037401385872 83.9905735841838 l 19.703158930983303 -23.210271677809903 a51.445544554455445,51.445544554455445 0 0,0 0.6683523918680708,0.5773068777526237 l -20.098690802614232 22.86862066759256" fill="#abff21" stroke="none" /><path d="M 114.39649973595853 84.71141617570332 l 43.006234006144844 -45.67113017951144 a83.73267326732673,83.73267326732673 0 0,0 1.0379961277873906,0.9943768099979767 l -43.78390261979755 44.92614123920788" fill="#4dd5ff" stroke="none" /><path d="M 115.41159269507618 85.73525988315684 l 34.94311611061826 -32.342826601555274 a68.61386138613861,68.61386138613861 0 0,0 0.7926609774473308,0.8712732679798842 l -35.493174788907474 31.738215758017716" fill="#38ff81" stroke="none" /><path d="M 115.6541949942343 86.00192230759917 l 22.18600195788228 -19.838859756415317 a50.76237623762376,50.76237623762376 0 0,0 0.5752801862726582,0.6545632492510495 l -22.523293208113525 19.45508422935297" fill="#b3ff20" stroke="none" /><path d="M 116.35404254752997 86.82634096563983 l 30.14047728349583 -24.279034967144703 a59.7029702970297,59.7029702970297 0 0,0 0.6360742212312104,0.8036589996202217 l -30.5528179353686 23.7580560236098" fill="#4bff2c" stroke="none" /><path d="M 116.57777611688842 87.10902102172516 l 23.494952855901257 -18.269817448700707 a50.76237623762376,50.76237623762376 0 0,0 0.5290116983047946,0.692493294584629 l -23.80511653156036 17.863803240875196" fill="#b3ff20" stroke="none" /><path d="M 117.01052211995028 87.68569379921539 l 38.85713327258799 -28.129567912683374 a68.97029702970298,68.97029702970298 0 0,0 0.6860406523528025,0.9650020927588852 l -39.33428902347075 27.458388593214984" fill="#39ff85" stroke="none" /><path d="M 117.21940702142032 87.97951657250589 l 24.40430811239485 -17.03610239653338 a50.76237623762376,50.76237623762376 0 0,0 0.4926615838509329,0.7188079742083264 l -24.69315943306111 16.614659687255006" fill="#b3ff20" stroke="none" /><path d="M 117.42321728460499 88.27688183743584 l 24.69315943306111 -16.614659687255006 a50.76237623762376,50.76237623762376 0 0,0 0.48024969432034237,0.7271592474095455 l -24.974733566302177 16.1883205615064" fill="#b3ff20" stroke="none" /><path d="M 117.81537515405839 88.88188828441811 l 26.33248519942151 -16.433418306623867 a52.039603960396036,52.039603960396036 0 0,0 0.4664533610666691,0.7619165099714005 l -26.610706524943577 15.978964680527913" fill="#a4ff21" stroke="none" /><line stroke="#e1ed5e" stroke-width="0.3" x1="172.87174338648825" x2="177.1583165268699" y1="56.24261187166439" y2="53.66864786411523" /><path d="M 173.72905801456457 55.72781907015455 a86.0,86.0 0 0,1 12.242430191666344,42.057860355516425" fill="none" id="id51" stroke="none" /><text fill="#e1ed5e" style="font-size:6.75px; font-family:Arial;" text-anchor="middle"><textPath startOffset="22.145653131862474" xlink:href="#id51">March</textPath></text><path d="M 118.18653347947321 89.5 l 41.69783701587846 -24.07425742574258 a69.14851485148515,69.14851485148515 0 0,0 0.5846890045689345,1.033089447254955 l -42.104959385468774 23.354911208388504" fill="#39ff88" stroke="none" /><path d="M 118.53625476483649 90.13048839642627 l 26.244400310610082 -13.973664943673688 a50.73267326732673,50.73267326732673 0 0,0 0.40270129871399524,0.7722328384406182 l -26.480409678299022 13.52108586212857" fill="#b4ff20" stroke="none" /><path d="M 118.70294669586156 90.45014215332178 l 26.559771545466756 -13.561608596980106 a50.82178217821782,50.82178217821782 0 0,0 0.3900694886771118,0.7804002745457186 l -26.788660947355606 13.103676466270638" fill="#b3ff20" stroke="none" /><path d="M 119.0197475246899 91.09779779509293 l 27.009655607904755 -12.641882621961393 a50.82178217821782,50.82178217821782 0 0,0 0.36305032621358846,0.7933304829288195 l -27.22269039897339 12.176363156817889" fill="#b3ff20" stroke="none" /><path d="M 119.31412917781788 91.75594674310238 l 43.955351976108865 -18.761926011807997 a68.79207920792079,68.79207920792079 0 0,0 0.4542706422256081,1.0900841699207928 l -44.270948462870955 18.004609332445927" fill="#38ff83" stroke="none" /><path d="M 119.58574465831526 92.42381321644754 l 27.75801435308614 -10.737396261838128 a50.76237623762376,50.76237623762376 0 0,0 0.3074007940044144,0.8154171275080402 l -27.938245830904993 10.259310854135931" fill="#b3ff20" stroke="none" /><path d="M 119.71291397450082 92.76114493625339 l 27.938245830904993 -10.259310854135931 a50.76237623762376,50.76237623762376 0 0,0 0.29335777849349504,0.8205739173196792 l -28.110243779442435 9.778201980435336" fill="#b3ff20" stroke="none" /><path d="M 119.94978838288452 93.4421083053983 l 28.217522465183205 -9.275660105518655 a50.70297029702971,50.70297029702971 0 0,0 0.264706407592959,0.8291890516107531 l -28.37259358855342 8.789902020216516" fill="#b4ff20" stroke="none" /><path d="M 120.16314734710363 94.1308016681162 l 45.65940438856143 -13.2907871702206 a68.55445544554456,68.55445544554456 0 0,0 0.31920752516529655,1.13275489622609 l -45.880830405801305 12.505024350091496" fill="#38ff80" stroke="none" /><path d="M 120.35273937422433 94.82641323984039 l 34.60253568291038 -8.795829258432605 a56.7029702970297,56.7029702970297 0 0,0 0.23170581595530423,0.9454387989011976 l -34.748429025381974 8.200534634923313" fill="#6dff28" stroke="none" /><path d="M 120.43855184770803 95.1765574152323 l 34.71952018259879 -8.19371222674118 a56.67326732673267,56.67326732673267 0 0,0 0.21532910346247877,0.9487797607416377 l -34.855060147618936 7.596498132060516" fill="#6dff28" stroke="none" /><path d="M 120.592083275326 95.88100663000786 l 29.18425380746344 -5.837668114189704 a50.76237623762376,50.76237623762376 0 0,0 0.16358467678895874,0.8559441532645905 l -29.280164776534555 5.3358213958917995" fill="#b3ff20" stroke="none" /><path d="M 120.7213421655516 96.59031103205396 l 52.78520118834292 -8.685784768417006 a74.49504950495049,74.49504950495049 0 0,0 0.19680353283908186,1.2636198581555096 l -52.926526213320265 7.7783767283300564" fill="#40ffc7" stroke="none" /><path d="M 120.82617615685814 97.30363454192243 l 29.486566241888244 -3.81762634163458 a50.73267326732673,50.73267326732673 0 0,0 0.10440763319447592,0.8646449785216558 l -29.547755961342382 3.3108876861895116" fill="#b4ff20" stroke="none" /><path d="M 120.86939407059847 97.66154086499901 l 29.577274199066004 -3.314195266295595 a50.76237623762376,50.76237623762376 0 0,0 0.08960189709877325,0.8668170741421078 l -29.629808488646443 2.8059736698705557" fill="#b3ff20" stroke="none" /><path d="M 120.9064616781168 98.02013634271609 l 6.505546773954308 -0.6160820432849522 a27.534653465346533,27.534653465346533 0 0,0 0.040523637566045656,0.47094609488367933 l -6.515164034218094 0.5043149010256108" fill="#ff0000" stroke="none" /><path d="M 120.99303781780057 99.45929381324524 l 62.97911345340172 -1.6221185602642854 a84.0,84.0 0 0,0 0.024754273605335886,1.4418123361237345 l -62.99767915860572 0.5407593081714844" fill="#4dd2ff" stroke="none" /><line stroke="#e1ed5e" stroke-width="0.3" x1="184.99686870605535" x2="189.99668451229388" y1="99.2704041080226" y2="99.22748670261217" /><path d="M 185.99683186730306 99.26182062694052 a86.0,86.0 0 0,1 -10.086455211305974,41.156179273409016" fill="none" id="id52" stroke="none" /><text fill="#e1ed5e" style="font-size:6.75px; font-family:Arial;" text-anchor="middle"><textPath startOffset="21.40746469413373" xlink:href="#id52">April</textPath></text><path d="M 120.99922638620191 99.81974689727618 l 30.058298589584627 -0.25801434222986436 a51.05940594059406,51.05940594059406 0 0,0 0.0,0.8765348899073788 l -30.058298589584627 -0.2580143422298607" fill="#b0ff20" stroke="none" /><path d="M 120.99303781780057 100.54070618675476 l 29.722815920252298 0.765554304019108 a50.73267326732673,50.73267326732673 0 0,0 -0.02989679576999628,0.8704125885777919 l -29.705294437485456 -1.2756731571610107" fill="#b4ff20" stroke="none" /><path d="M 120.98066250479742 100.90099992219065 l 48.31190743678953 2.0747211786794457 a69.35643564356435,69.35643564356435 0 0,0 -0.06129262888105065,1.1890606258349843 l -48.26917321845191 -2.9037535978911606" fill="#39ff8a" stroke="none" /><path d="M 120.93736805541906 101.62068470465957 l 29.9105257934558 2.315263863799385 a51.0,51.0 0 0,0 -0.0750583448769152,0.8722917420876893 l -29.866373825881144 -2.828376653262732" fill="#b1ff20" stroke="none" /><path d="M 120.86939407059847 102.33845913500097 l 29.577274199066004 3.314195266295591 a50.76237623762376,50.76237623762376 0 0,0 -0.1044687617853392,0.8651512109446884 l -29.516023351021 -3.8214401541636884" fill="#b3ff20" stroke="none" /><path d="M 120.82617615685814 102.69636545807757 l 30.252451079339888 3.916785467391325 a51.504950495049506,51.504950495049506 0 0,0 -0.1210500824515778,0.875858095588476 l -30.180756480333102 -4.435531871179887" fill="#aaff21" stroke="none" /><path d="M 120.7213421655516 103.40968896794604 l 29.367446746651645 4.832402186537382 a50.76237623762376,50.76237623762376 0 0,0 -0.14886715262485367,0.8586261764338261 l -29.280164776534555 -5.335821395891796" fill="#b3ff20" stroke="none" /><path d="M 120.592083275326 104.11899336999214 l 46.747232895188446 9.350755811651167 a68.67326732673267,68.67326732673267 0 0,0 -0.2411487589449354,1.1539841083849138 l -46.57982642541915 -10.15185637132149" fill="#38ff82" stroke="none" /><path d="M 120.43855184770803 104.8234425847677 l 28.966660468746035 6.836052998496808 a50.76237623762376,50.76237623762376 0 0,0 -0.20743071737432867,0.8463881127931511 l -28.845042224855412 -7.332296935898059" fill="#b3ff20" stroke="none" /><path d="M 120.35273937422433 105.17358676015961 l 28.845042224855412 7.332296935898059 a50.76237623762376,50.76237623762376 0 0,0 -0.22192952942675526,0.8427025714665902 l -28.714923214623926 -7.826380011737452" fill="#b3ff20" stroke="none" /><path d="M 120.16314734710363 105.8691983318838 l 28.576341784721137 8.31815661746473 a50.76237623762376,50.76237623762376 0 0,0 -0.25072668898698286,0.8345876032014902 l -28.429338775730525 -8.807481824256945" fill="#b3ff20" stroke="none" /><path d="M 119.94978838288452 106.5578916946017 l 45.51486373634049 14.96163975020159 a68.9108910891089,68.9108910891089 0 0,0 -0.3790577396776707,1.1206168532106755 l -45.25132057509045 -15.740758277886425" fill="#38ff85" stroke="none" /><path d="M 119.71291397450082 107.23885506374661 l 33.51474200473832 12.307077491688009 a56.7029702970297,56.7029702970297 0 0,0 -0.3433751408744453,0.910843356590312 l -33.29853618004944 -12.88058912847248" fill="#6dff28" stroke="none" /><path d="M 119.58574465831526 107.57618678355244 l 27.730311743951322 10.726680297504952 a50.73267326732673,50.73267326732673 0 0,0 -0.3211651812699568,0.8095460574246569 l -27.54208788771524 -11.201127372143173" fill="#b4ff20" stroke="none" /><path d="M 119.31412917781788 108.2440532568976 l 27.373065680584887 11.683934035942578 a50.76237623762376,50.76237623762376 0 0,0 -0.34896986652476053,0.7985113475998322 l -27.16846193204316 -12.152107453318255" fill="#b3ff20" stroke="none" /><path d="M 119.0197475246899 108.90220220490707 l 43.44680658044441 20.335299237517575 a68.97029702970298,68.97029702970298 0 0,0 -0.5111051810708408,1.0680132534721778 l -43.091322141413656 -21.078124993054857" fill="#39ff85" stroke="none" /><path d="M 118.70294669586154 109.54985784667822 l 29.416798763505007 15.020427051635341 a54.02970297029703,54.02970297029703 0 0,0 -0.42887216765851105,0.8224189304001546 l -29.15461852687155 -15.523192225139997" fill="#8cff24" stroke="none" /><path d="M 118.5362547648365 109.86951160357373 l 28.89243670558673 15.383595172755644 a53.73267326732673,53.73267326732673 0 0,0 -0.4404918847890408,0.8104554543768636 l -28.62409947118235 -15.877305460607111" fill="#8fff24" stroke="none" /><line stroke="#e1ed5e" stroke-width="0.3" x1="174.33088141563837" x2="178.70328620479359" y1="141.23008692659167" y2="143.65538615756765" /><path d="M 175.20536237346943 141.71514677278685 a86.0,86.0 0 0,1 -30.301960400862466,31.631185727798858" fill="none" id="id53" stroke="none" /><text fill="#e1ed5e" style="font-size:6.75px; font-family:Arial;" text-anchor="middle"><textPath startOffset="22.145653131862474" xlink:href="#id53">May</textPath></text><path d="M 118.18653347947321 110.5 l 30.91967926778897 17.851485148514843 a56.7029702970297,56.7029702970297 0 0,0 -0.49392685624084565,0.838795784621802 l -30.608678701418356 -18.379632101430193" fill="#6dff28" stroke="none" /><path d="M 117.81537515405839 111.11811171558189 l 41.12403430187168 25.664438924794403 a69.47524752475248,69.47524752475248 0 0,0 -0.6401062507596088,1.006353345016388 l -40.67741035948619 -26.366605944489464" fill="#39ff8b" stroke="none" /><path d="M 117.423217284605 111.72311816256416 l 27.182190473718972 18.289390853335593 a53.76237623762376,53.76237623762376 0 0,0 -0.5217773357344698,0.7612887263411885 l -26.864223401169184 -18.753314314746824" fill="#8fff24" stroke="none" /><path d="M 117.21940702142032 112.02048342749411 l 26.839867804250623 18.73631221654669 a53.73267326732673,53.73267326732673 0 0,0 -0.5344735314841601,0.7518039559865732 l -26.514279174236503 -19.194293399242767" fill="#8fff24" stroke="none" /><path d="M 116.79662413953412 112.60449989151573 l 23.805116531560362 17.863803240875193 a50.76237623762376,50.76237623762376 0 0,0 -0.5290116983048002,0.6924932945846403 l -23.494952855901257 -18.26981744870071" fill="#b3ff20" stroke="none" /><path d="M 116.1254893667686 113.45245675266167 l 38.796969466581885 32.365811791057304 a71.52475247524752,71.52475247524752 0 0,0 -0.7946244569658674,0.9360656122510149 l -38.2356504461089 -33.02704418575787" fill="#3cffa4" stroke="none" /><path d="M 115.89218393027572 113.72728997021213 l 25.018388563503358 21.610288170927994 a54.05940594059406,54.05940594059406 0 0,0 -0.6126447858491858,0.6970773046441958 l -24.643732713695584 -22.036577753383483" fill="#8bff24" stroke="none" /><path d="M 115.6541949942343 113.99807769240083 l 22.407419143090685 20.036852368754793 a51.05940594059406,51.05940594059406 0 0,0 -0.5898632988017094,0.6483630942239919 l -22.060158143447097 -20.418553038536455" fill="#b0ff20" stroke="none" /><path d="M 115.16444852881244 114.52719865689866 l 21.66349789830349 20.753140938426654 a51.0,51.0 0 0,0 -0.6110606257766112,0.6270020335497808 l -21.30405047137607 -21.121965664044172" fill="#b1ff20" stroke="none" /><path d="M 114.65682725009322 115.03919595460226 l 33.418395370792446 34.29021765038026 a68.88118811881188,68.88118811881188 0 0,0 -0.8538889749340046,0.8180063222367179 l -32.82483390999313 -34.85883610292255" fill="#38ff84" stroke="none" /><path d="M 114.13192950727249 115.5334660781643 l 20.028562045667663 22.01489817584247 a50.76237623762376,50.76237623762376 0 0,0 -0.6496012293618771,0.5808774249353489 l -19.64769578948241 -22.355471130661208" fill="#b3ff20" stroke="none" /><path d="M 113.86319453409587 115.77377054828091 l 19.62808731065059 22.33316028122941 a50.73267326732673,50.73267326732673 0 0,0 -0.6590911578006261,0.5693072443426622 l -19.241816673087108 -22.66681165803679" fill="#b4ff20" stroke="none" /><path d="M 113.31354834802062 116.24036423190432 l 18.86870642817067 23.016753833618292 a50.76237623762376,50.76237623762376 0 0,0 -0.6786427630309384,0.5466665712971334 l -18.47081289478448 -23.33726869870883" fill="#b3ff20" stroke="none" /><path d="M 112.7482090630111 116.68781488649013 l 28.95844944157827 37.90753989774137 a68.70297029702971,68.70297029702971 0 0,0 -0.9433474351476627,0.7079055020344182 l -28.303449017519842 -38.399064427039804" fill="#38ff82" stroke="none" /><path d="M 112.16784306229584 117.11559508785304 l 17.262159252450818 24.281388788000843 a50.79207920792079,50.79207920792079 0 0,0 -0.714970854445365,0.4991051838376822 l -16.84279330683169 -24.574138787643648" fill="#b3ff20" stroke="none" /><path d="M 111.8722381534696 117.32195027204791 l 16.84279330683169 24.574138787643648 a50.79207920792079,50.79207920792079 0 0,0 -0.723433306017149,0.48675821409097997 l -16.41846371271754 -24.859646675791748" fill="#b3ff20" stroke="none" /><path d="M 111.27062007382361 117.71928675628689 l 15.989295521987385 25.137828311960057 a50.79207920792079,50.79207920792079 0 0,0 -0.7397161807207745,0.46163760594194264 l -15.555415212476897 -25.408601714743547" fill="#b3ff20" stroke="none" /><line stroke="#e1ed5e" stroke-width="0.3" x1="143.1302829299769" x2="145.66735839644613" y1="173.24464959558577" y2="177.55315839532614" /><path d="M 143.63769802327073 174.10635135553383 a86.0,86.0 0 0,1 -40.68552437913181,11.842963189579606" fill="none" id="id54" stroke="none" /><text fill="#e1ed5e" style="font-size:6.75px; font-family:Arial;" text-anchor="middle"><textPath startOffset="21.407464694133747" xlink:href="#id54">June</textPath></text><path d="M 110.65571695917076 118.09573695890943 l 24.175063652772142 41.05454325613964 a68.64356435643565,68.64356435643565 0 0,0 -1.0205256107137468,0.5892007360604912 l -23.466745574197997 -41.4634908894763" fill="#38ff81" stroke="none" /><path d="M 110.02825361518725 118.45085714620011 l 17.035265334992776 31.342969494464402 a56.67326732673267,56.67326732673267 0 0,0 -0.8587651194897532,0.45724405599057893 l -16.49471139971647 -31.63078401817755" fill="#6dff28" stroke="none" /><path d="M 109.71004243097381 118.62028667847754 l 13.761616005425399 26.38971322748868 a50.76237623762376,50.76237623762376 0 0,0 -0.7761151033825853,0.3962899018261992 l -13.306573680329231 -26.622061080987717" fill="#b3ff20" stroke="none" /><path d="M 109.06512990194946 118.94263497670748 l 20.592077259590997 43.02952160196919 a68.70297029702971,68.70297029702971 0 0,0 -1.0682045329776608,0.49997365824237044 l -19.85038401274183 -43.3766714917821" fill="#38ff82" stroke="none" /><path d="M 108.07796709384702 119.3841803445677 l 11.448547422962827 27.472346117760722 a50.76237623762376,50.76237623762376 0 0,0 -0.8072318611393727,0.3282941704469465 l -10.975261100633015 -27.66482754478696" fill="#b3ff20" stroke="none" /><path d="M 107.06938296918513 119.77432235084164 l 10.039123763878166 28.081215898507793 a50.82178217821782,50.82178217821782 0 0,0 -0.8240249279080165,0.28663864480218065 l -9.555593063925127 -28.249412975878563" fill="#b3ff20" stroke="none" /><path d="M 106.38641147887787 120.00534299687104 l 9.060213173004968 28.380988721162158 a50.79207920792079,50.79207920792079 0 0,0 -0.8328918214844729,0.25803201534743725 l -8.57168071864887 -28.53233732431624" fill="#b3ff20" stroke="none" /><path d="M 105.69591212413111 120.21278271476187 l 13.10784869301459 46.5151308018636 a69.32673267326733,69.32673267326733 0 0,0 -1.1482441445805114,0.3129590476203288 l -12.307423147499383 -46.73329034362807" fill="#39ff8a" stroke="none" /><path d="M 104.64783097203109 120.47920084513623 l 7.829655852459714 34.498908354394985 a56.37623762376238,56.37623762376238 0 0,0 -0.9456109381285434,0.2060915027753915 l -7.236282497712035 -34.6282313153041" fill="#70ff27" stroke="none" /><path d="M 103.94208987418118 120.62667999033965 l 5.586950571328908 29.233286209788304 a50.76237623762376,50.76237623762376 0 0,0 -0.8573167473284913,0.15623167008670377 l -5.08429909044936 -29.324886053806374" fill="#b3ff20" stroke="none" /><path d="M 103.58742460773223 120.69131181640829 l 5.08429909044936 29.324886053806374 a50.76237623762376,50.76237623762376 0 0,0 -0.8598723441050912,0.14149166700268567 l -4.580149243291196 -29.40784371930473" fill="#b3ff20" stroke="none" /><path d="M 103.2317021107853 120.74984581791261 l 8.552354525147532 54.912251096625894 a76.57425742574257,76.57425742574257 0 0,0 -1.3005769133569827,0.1911400184377385 l -7.608452506182864 -55.050972188362515" fill="#43ffde" stroke="none" /><path d="M 102.15924093988457 120.88869738790638 l 3.6710150067061487 35.51374011352681 a56.7029702970297,56.7029702970297 0 0,0 -0.9690819427128795,0.09177306752560724 l -3.060833500608254 -35.5715249365576" fill="#6dff28" stroke="none" /><path d="M 101.44090949804482 120.95050786540614 l 2.0421376478654962 29.692233212357774 a50.76237623762376,50.76237623762376 0 0,0 -0.8698632280136026,0.05232881173635334 l -1.5321300677194285 -29.722914001918816" fill="#b3ff20" stroke="none" /><path d="M 101.08105385017728 120.97215588758144 l 1.6835081881827252 32.659609097916785 a53.7029702970297,53.7029702970297 0 0,0 -0.9210679276289959,0.03955461992375911 l -1.1226144999528997 -32.683696286266375" fill="#90ff24" stroke="none" /><path d="M 100.72087961077811 120.9876233191556 l 1.632430349159485 47.52642847803131 a68.55445544554456,68.55445544554456 0 0,0 -1.1764815716049835,0.03030199201710878 l -0.8163354634837575 -47.547448187398466" fill="#38ff80" stroke="none" /><line stroke="#e1ed5e" stroke-width="0.3" x1="101.45913802915013" x2="101.54496967792366" y1="184.9874750549273" y2="189.98673829345242" /><path d="M 101.47630435890484 185.9873277026323 a86.0,86.0 0 0,1 -42.54439059252881,-10.42667462771756" fill="none" id="id55" stroke="none" /><text fill="#e1ed5e" style="font-size:6.75px; font-family:Arial;" text-anchor="middle"><textPath startOffset="22.145653131862474" xlink:href="#id55">July</textPath></text><path d="M 99.63950707515114 120.99690560180557 l -0.5104008737958959 29.728292089685105 a50.73267326732673,50.73267326732673 0 0,0 -0.8706371422449355,-0.022424524421667587 l 1.0206513301115754 -29.71514984791339" fill="#b4ff20" stroke="none" /><path d="M 98.91894614982273 120.97215588758144 l -1.5306009957955364 29.693250415090553 a50.73267326732673,50.73267326732673 0 0,0 -0.8693542384127039,-0.05229819218589321 l 2.0400995863406863 -29.662600245079968" fill="#b4ff20" stroke="none" /><path d="M 98.55909050195518 120.95050786540614 l -2.0400995863406863 29.662600245079968 a50.73267326732673,50.73267326732673 0 0,0 -0.8683283690578454,-0.06721410745749415 l 2.548996950173768 -29.62320837062742" fill="#b4ff20" stroke="none" /><path d="M 98.19965949673042 120.92268563240118 l -4.135435611470729 48.060030363535404 a69.23762376237624,69.23762376237624 0 0,0 -1.1833053999286132,-0.11206025165122603 l 4.959840574784358 -47.981958356378996" fill="#39ff89" stroke="none" /><path d="M 97.12497278360702 120.80226474461374 l -4.070583088556392 29.452711470096677 a50.73267326732673,50.73267326732673 0 0,0 -0.8616700418982661,-0.1266358229215118 l 4.575578236062342 -29.378494573876285" fill="#b4ff20" stroke="none" /><path d="M 96.41257539226777 120.69131181640829 l -5.084299090449352 29.324886053806374 a50.76237623762376,50.76237623762376 0 0,0 -0.8573167473284913,-0.15623167008669814 l 5.5869505713289005 -29.233286209788307" fill="#b3ff20" stroke="none" /><path d="M 96.05791012581884 120.62667999033965 l -5.5869505713289005 29.233286209788307 a50.76237623762376,50.76237623762376 0 0,0 -0.8545084953714182,-0.1709256309804381 l 6.087955552231277 -29.13307118214501" fill="#b3ff20" stroke="none" /><path d="M 95.70440661134978 120.55596938700252 l -11.556179102139607 55.30050038766447 a77.49504950495049,77.49504950495049 0 0,0 -1.2998413791240069,-0.283294378683349 l 12.50378289788275 -55.0939745508474" fill="#44ffe8" stroke="none" /><path d="M 94.6519064749342 120.30758222061772 l -7.572053208756541 28.75231938166668 a50.73267326732673,50.73267326732673 0 0,0 -0.840274635365687,-0.22902058840424525 l 8.064509245056923 -28.61809829911829" fill="#b4ff20" stroke="none" /><path d="M 93.95794788825049 120.11202640906438 l -8.554588633467123 28.475443331645614 a50.73267326732673,50.73267326732673 0 0,0 -0.831917679003182,-0.2577302235166103 l 9.042146945341939 -28.324396520322356" fill="#b4ff20" stroke="none" /><path d="M 93.61358852112213 120.00534299687104 l -9.042146945341939 28.324396520322356 a50.73267326732673,50.73267326732673 0 0,0 -0.8273708120193126,-0.27197321958323506 l 9.527040495008995 -28.1650023793371" fill="#b4ff20" stroke="none" /><path d="M 93.27111125876986 119.89276391827306 l -15.523079967392277 45.89122765304575 a69.44554455445544,69.44554455445544 0 0,0 -1.1259908132372545,-0.39167805467416617 l 16.308576552674555 -45.617991165803" fill="#39ff8b" stroke="none" /><path d="M 92.25597844496254 119.51999308798841 l -10.975261100633007 27.664827544786963 a50.76237623762376,50.76237623762376 0 0,0 -0.8072318611393727,-0.3282941704469465 l 11.448547422962822 -27.472346117760726" fill="#b3ff20" stroke="none" /><path d="M 91.59046798132341 119.24265499422711 l -22.611768553754167 51.740151547419686 a77.46534653465346,77.46534653465346 0 0,0 -1.2139432041761014,-0.5429813544937742 l 23.496625160785904 -51.34436644201606" fill="#44ffe8" stroke="none" /><path d="M 91.26138138417905 119.09545874513695 l -12.459020600774428 27.225208507918037 a50.94059405940594,50.94059405940594 0 0,0 -0.792032327737475,-0.3707111214378316 l 12.924541642383394 -27.00732115490968" fill="#b1ff20" stroke="none" /><path d="M 90.93487009805054 118.94263497670748 l -13.616927801796793 28.45414193106556 a52.54455445544555,52.54455445544555 0 0,0 -0.810286448451767,-0.39635170590949903 l 14.103374499510629 -28.21619647505884" fill="#9eff22" stroke="none" /><path d="M 89.97174638481275 118.45085714620012 l -14.198418484869077 26.123490810956596 a50.73267326732673,50.73267326732673 0 0,0 -0.7616080999001086,-0.4224511745971465 l 14.644770772925288 -25.875906720926302" fill="#b4ff20" stroke="none" /><line stroke="#e1ed5e" stroke-width="0.3" x1="58.13341422392154" x2="55.67067388415222" y1="173.97424548756322" y2="178.32567169271397" /><path d="M 57.64086615596768 174.84453072859336 a86.0,86.0 0 0,1 -31.369924170532247,-30.572349798747897" fill="none" id="id56" stroke="none" /><text fill="#e1ed5e" style="font-size:6.75px; font-family:Arial;" text-anchor="middle"><textPath startOffset="22.145653131862474" xlink:href="#id56">August</textPath></text><path d="M 89.34428304082925 118.09573695890944 l -15.08680717981601 25.620696882416325 a50.73267326732673,50.73267326732673 0 0,0 -0.7466574990097797,-0.448346374942929 l 15.524397435383216 -25.357936506937477" fill="#b4ff20" stroke="none" /><path d="M 89.03521579738668 117.91015095944536 l -24.860748340578716 40.60816405656421 a68.61386138613861,68.61386138613861 0 0,0 -0.9992657178157905,-0.6236157132899927 l 25.554178187184217 -40.175412546432675" fill="#38ff81" stroke="none" /><path d="M 88.72937992617639 117.7192867562869 l -15.97335405087872 25.11276567156927 a50.76237623762376,50.76237623762376 0 0,0 -0.7312546739360262,-0.47399044487700703 l 16.402094357071757 -24.83486138498837" fill="#b3ff20" stroke="none" /><path d="M 87.83215693770417 117.11559508785305 l -18.966001491725603 26.67805627555029 a53.73267326732673,53.73267326732673 0 0,0 -0.7471886170205339,-0.5409069371798086 l 19.421171119120093 -26.348548566997415" fill="#8fff24" stroke="none" /><path d="M 87.2517909369889 116.68781488649013 l -18.08550734116003 23.6745096621635 a50.79207920792079,50.79207920792079 0 0,0 -0.6883295539940022,-0.5352492245098214 l 18.48924683978926 -23.36055938603289" fill="#b3ff20" stroke="none" /><path d="M 86.96720088162412 116.46651593811092 l -34.1949679838575 43.20422498613261 a76.0990099009901,76.0990099009901 0 0,0 -1.0173684955442985,-0.8195200442733834 l 34.931587249757065 -42.61085664806581" fill="#42ffd9" stroke="none" /><path d="M 86.68645165197938 116.24036423190432 l -18.887537472510154 23.0397246458275 a50.79207920792079,50.79207920792079 0 0,0 -0.6695500545730743,-0.5585624688977396 l 19.280261861245123 -22.71209999301789" fill="#b3ff20" stroke="none" /><path d="M 85.86807049272751 115.53346607816431 l -20.008573460791744 21.992927219579162 a50.73267326732673,50.73267326732673 0 0,0 -0.6391597603900196,-0.5915967321158411 l 20.38316299249573 -21.646212741330945" fill="#b4ff20" stroke="none" /><path d="M 85.34317274990678 115.03919595460226 l -20.751745512508208 21.293119024832908 a50.73267326732673,50.73267326732673 0 0,0 -0.6184749652305856,-0.6131888861802683 l 21.114212397868755 -20.93375012842398" fill="#b4ff20" stroke="none" /><path d="M 85.08716467003676 114.78537596483092 l -21.135305517147344 20.954662965715112 a50.76237623762376,50.76237623762376 0 0,0 -0.6082135174445072,-0.6240806495844935 l 21.491905835742664 -20.588759624062885" fill="#b3ff20" stroke="none" /><path d="M 84.83555147118756 114.52719865689866 l -34.361310527804136 32.91735820134605 a68.58415841584159,68.58415841584159 0 0,0 -0.8071511738373294,-0.8571665756551233 l 34.92131753537772 -32.32265016574643" fill="#38ff81" stroke="none" /><path d="M 84.1078160697243 113.72728997021213 l -22.500814871578484 19.43566797762707 a50.73267326732673,50.73267326732673 0 0,0 -0.5636289752897488,-0.6639535156664231 l 22.831138410375342 -19.04654767951109" fill="#b4ff20" stroke="none" /><path d="M 83.64595745247003 113.17365903436017 l -23.17786510979495 18.67044745746661 a50.76237623762376,50.76237623762376 0 0,0 -0.54082131546474,-0.6833100648512177 l 23.494952855901253 -18.269817448700714" fill="#b3ff20" stroke="none" /><path d="M 83.4222238831116 112.89097897827486 l -37.54033884460869 29.191594546277294 a68.55445544554456,68.55445544554456 0 0,0 -0.714428905610024,-0.9352103709194787 l 38.03591972757301 -28.542863262116946" fill="#38ff80" stroke="none" /><path d="M 83.20337586046588 112.60449989151573 l -23.900146936875977 17.93511582866311 a50.88118811881188,50.88118811881188 0 0,0 -0.5182563514185269,-0.7031142747134499 l 24.204505307878335 -17.52219524468078" fill="#b2ff20" stroke="none" /><path d="M 82.576782715395 111.72311816256416 l -24.693159433061112 16.614659687255006 a50.76237623762376,50.76237623762376 0 0,0 -0.48024969432033676,-0.7271592474095399 l 24.974733566302177 -16.188320561506405" fill="#b3ff20" stroke="none" /><path d="M 82.18462484594161 111.11811171558189 l -25.2237489804985 15.74148490423971 a50.73267326732673,50.73267326732673 0 0,0 -0.45473877893941844,-0.7427816204515651 l 25.49025572389332 -15.306166167663587" fill="#b4ff20" stroke="none" /><path d="M 81.99639281039703 110.81064883170644 l -41.12563735673099 24.69476359717952 a68.97029702970298,68.97029702970298 0 0,0 -0.6007847879472051,-1.0202639140344505 l 41.543495854807965 -23.98514851485151" fill="#39ff85" stroke="none" /><line stroke="#e1ed5e" stroke-width="0.3" x1="26.387840678322732" x2="22.057713659400548" y1="142.50000000000003" y2="145.00000000000006" /><path d="M 25.521815274538298 143.00000000000003 a86.0,86.0 0 0,1 -11.493303480769221,-40.785679425670985" fill="none" id="id57" stroke="none" /><text fill="#e1ed5e" style="font-size:6.75px; font-family:Arial;" text-anchor="middle"><textPath startOffset="21.40746469413373" xlink:href="#id57">September</textPath></text><path d="M 81.81346652052679 110.50000000000001 l -26.572403230970046 15.341584158415856 a51.68316831683168,51.68316831683168 0 0,0 -0.4370098230025484,-0.7721544837730248 l 26.831846418993972 -14.88317290454371" fill="#a8ff21" stroke="none" /><path d="M 81.4637452351635 109.86951160357371 l -27.030945774464538 14.392456100826736 a51.62376237623762,51.62376237623762 0 0,0 -0.4097745065368291,-0.7857966470783225 l 27.274028349976316 -13.926313210643912" fill="#a9ff21" stroke="none" /><path d="M 81.29705330413844 109.54985784667822 l -26.506863634021602 13.534593440412415 a50.76237623762376,50.76237623762376 0 0,0 -0.3896135336932694,-0.7794880591458933 l 26.735297080926607 -13.07757352510277" fill="#b3ff20" stroke="none" /><path d="M 80.9802524753101 108.90220220490708 l -26.95585151306829 12.616699588849919 a50.76237623762376,50.76237623762376 0 0,0 -0.36262595411981496,-0.7924031533169685 l 27.168461932043158 -12.15210745331826" fill="#b3ff20" stroke="none" /><path d="M 80.83023694016515 108.57439118712176 l -27.141347698578045 12.139979601568442 a50.73267326732673,50.73267326732673 0 0,0 -0.3487656711669288,-0.7980441086603243 l 27.345747251761942 -11.672273423132268" fill="#b4ff20" stroke="none" /><path d="M 80.68587082218212 108.24405325689762 l -43.818759831994164 18.703622947756404 a68.64356435643565,68.64356435643565 0 0,0 -0.4532899197682913,-1.0877307930427143 l 44.13337559629894 -17.948659645272407" fill="#38ff81" stroke="none" /><path d="M 80.28708602549918 107.23885506374661 l -27.910363350035826 10.249072020948168 a50.73267326732673,50.73267326732673 0 0,0 -0.29318612385423615,-0.8200937687431203 l 28.082189643934008 -9.768443295824126" fill="#b4ff20" stroke="none" /><path d="M 80.05021161711548 106.5578916946017 l -28.27395751011356 9.294211425729696 a50.76237623762376,50.76237623762376 0 0,0 -0.2650165498397051,-0.830160567781346 l 28.42933877573052 -8.807481824256957" fill="#b3ff20" stroke="none" /><path d="M 79.94057633289273 106.21446072829308 l -28.400966182141968 8.79869192223674 a50.73267326732673,50.73267326732673 0 0,0 -0.2505799793971719,-0.8340992546917175 l 28.54782248154277 -8.3098550639543" fill="#b4ff20" stroke="none" /><path d="M 79.83685265289637 105.86919833188381 l -45.65940438856142 13.290787170220616 a68.55445544554456,68.55445544554456 0 0,0 -0.31920752516531936,-1.1327548962261471 l 45.88083040580131 -12.505024350091473" fill="#38ff80" stroke="none" /><path d="M 79.64726062577567 105.17358676015961 l -60.79913091706051 15.454901325964759 a83.73267326732673,83.73267326732673 0 0,0 -0.3421575144986825,-1.39611942069274 l 61.05547595807548 -14.40892608066392" fill="#4dd5ff" stroke="none" /><path d="M 79.56144815229197 104.8234425847677 l -29.111204682661942 6.870165039407467 a50.910891089108915,50.910891089108915 0 0,0 -0.19343505415864187,-0.852310539785727 l 29.22485059837825 -6.369420165682713" fill="#b2ff20" stroke="none" /><path d="M 79.407916724674 104.11899336999214 l -29.155127805659582 5.831842098107683 a50.73267326732673,50.73267326732673 0 0,0 -0.16348895725894766,-0.8554433082363491 l 29.25094305520069 -5.3304962248380185" fill="#b4ff20" stroke="none" /><path d="M 79.34024301695615 103.76489593502545 l -46.81319757685465 8.530924028162344 a68.58415841584159,68.58415841584159 0 0,0 -0.20113180538957703,-1.1600748047897476 l 46.952744199736465 -7.726056190452004" fill="#38ff81" stroke="none" /><path d="M 79.2786578344484 103.40968896794605 l -29.338137917563166 4.827579429864205 a50.73267326732673,50.73267326732673 0 0,0 -0.1340272863194329,-0.8605513228586753 l 29.416686696020868 -4.32323992507408" fill="#b4ff20" stroke="none" /><line stroke="#e1ed5e" stroke-width="0.3" x1="15.003131293944662" x2="10.003315487706104" y1="100.72959589197737" y2="100.7725132973878" /><path d="M 14.003168132696942 100.73817937305945 a86.0,86.0 0 0,1 10.791469493833604,-42.45332614584628" fill="none" id="id58" stroke="none" /><text fill="#e1ed5e" style="font-size:6.75px; font-family:Arial;" text-anchor="middle"><textPath startOffset="22.145653131862435" xlink:href="#id58">October</textPath></text><line stroke="#e1ed5e" stroke-width="0.3" x1="26.387840678322718" x2="22.05771365940052" y1="57.49999999999999" y2="54.99999999999999" /><path d="M 25.521815274538284 56.99999999999999 a86.0,86.0 0 0,1 29.574782752854787,-30.34633250058573" fill="none" id="id59" stroke="none" /><text fill="#e1ed5e" style="font-size:6.75px; font-family:Arial;" text-anchor="middle"><textPath startOffset="21.40746469413373" xlink:href="#id59">November</textPath></text><line stroke="#e1ed5e" stroke-width="0.3" x1="56.869717070023135" x2="54.33264160355391" y1="26.7553504044142" y2="22.446841604673864" /><path d="M 56.362301976729285 25.89364864446614 a86.0,86.0 0 0,1 42.16139366436587,-11.88097634709845" fill="none" id="id60" stroke="none" /><text fill="#e1ed5e" style="font-size:6.75px; font-family:Arial;" text-anchor="middle"><textPath startOffset="22.145653131862474" xlink:href="#id60">December</textPath></text></svg>