<?xml version="1.0" encoding="utf-8" ?>
<svg baseProfile="full" height="200mm" version="1.1" viewBox="0,0,200,200" width="200mm" xmlns="http://www.w3.org/2000/svg" xmlns:ev="http://www.w3.org/2001/xml-events" xmlns:xlink="http://www.w3.org/1999/xlink"><defs /><rect fill="#1a1a1a" height="200" width="200" x="0" y="0" /><text alignment-baseline="middle" fill="#e1ed5e" style="dominant-baseline: central; font-size:9.0px; font-family:Arial;" text-anchor="middle" x="100.0" y="100.0">2024</text><line stroke="#e1ed5e" stroke-width="0.3" x1="100.0" x2="100.0" y1="15.0" y2="10.0" /><path d="M 100.0 14.0 a86.0,86.0 0 0,1 42.35913384403234,11.155469271406648" fill="none" id="id49" stroke="none" /><text fill="#e1ed5e" style="font-size:6.75px; font-family:Arial;" text-anchor="middle"><textPath startOffset="22.145653131862478" xlink:href="#id49">January</textPath></text><path d="M 100.0 79.0 l 0.0 -21.076974341886043 a42.07697434188604,42.07697434188604 0 0,0 0.722307216633177,0.006200138734800773 l -0.3618142917843222 21.073868601345676" fill="#ffec16" stroke="none" /><path d="M 100.36049292484886 79.00309439819443 l 0.3607331733825761 -21.01089887444922 a42.01399533488837,42.01399533488837 0 0,0 0.7210135495898929,0.01857075142630097 l -0.7213600370432105 21.001610405672874" fill="#ffeb16" stroke="none" /><path d="M 101.08105385017728 79.02784411241856 l 1.0850163934468375 -21.04902816840897 a42.07697434188604,42.07697434188604 0 0,0 0.7210303267669124,0.043375393982048836 l -1.4461910723462124 21.02730079660223" fill="#ffec16" stroke="none" /><path d="M 101.80034050326958 79.07731436759882 l 2.8831844247629483 -33.50697339197604 a54.630789736754416,54.630789736754416 0 0,0 0.933667347102034,0.08841926850084333 l -3.4579513352499953 33.45254236797002" fill="#79ff26" stroke="none" /><path d="M 102.51750503828377 79.15144685158666 l 2.5216994818663836 -20.883289158324057 a42.03498833722092,42.03498833722092 0 0,0 0.7156400279580187,0.09265392923166113 l -2.879817331715194 20.836923632892" fill="#ffeb16" stroke="none" /><path d="M 102.87502721639298 79.19773525538626 l 2.88843953929518 -20.899309631792878 a42.097967344218596,42.097967344218596 0 0,0 0.7150137169824009,0.1050823935467922 l -3.246778361885263 20.846646164947202" fill="#ffec16" stroke="none" /><path d="M 103.58742460773223 79.30868818359171 l 3.5969878855935598 -20.74647026177026 a42.05598133955348,42.05598133955348 0 0,0 0.7102759917887929,0.12943594624208285 l -3.9525986109334066 20.68166614159681" fill="#ffeb16" stroke="none" /><path d="M 104.29559338865022 79.4440306129975 l 6.874953364107627 -32.89914060838822 a54.609796734421856,54.609796734421856 0 0,0 0.9159820395549074,0.1996340222340749 l -7.438697820281669 32.77627512802043" fill="#7aff26" stroke="none" /><path d="M 104.9986988182912 79.60360301121754 l 6.506137149032128 -26.54725979279716 a48.332889036987666,48.332889036987666 0 0,0 0.8041550282213263,0.20441306355008534 l -6.960897470478849 26.431661497411806" fill="#c3ff1e" stroke="none" /><path d="M 105.3480935250658 79.69241777938227 l 5.351657732679976 -20.321116097472522 a42.01399533488837,42.01399533488837 0 0,0 0.6958689999293917,0.18966219032274945 l -5.6997081335440605 20.22625341300563" fill="#ffeb16" stroke="none" /><path d="M 106.04205211174951 79.88797359093562 l 6.046078804259836 -20.12542995882051 a42.01399533488837,42.01399533488837 0 0,0 0.6889482306693544,0.2134379229619771 l -6.3906676678008205 20.018675448051887" fill="#ffeb16" stroke="none" /><path d="M 106.72888874123014 80.10723608172694 l 10.77608773420594 -31.857588600873143 a54.630789736754416,54.630789736754416 0 0,0 0.885784217808911,0.30812173173509305 l -11.321377724059868 31.66790843656946" fill="#79ff26" stroke="none" /><path d="M 107.40779381753099 80.34994680014964 l 7.420136026490555 -19.682792375458245 a42.03498833722092,42.03498833722092 0 0,0 0.6730156678445152,0.2603369183454862 l -7.7569239568285955 19.55251556897472" fill="#ffeb16" stroke="none" /><path d="M 107.74402155503746 80.48000691201159 l 7.74144107467924 -19.513488591791145 a41.99300233255582,41.99300233255582 0 0,0 0.6677797995322131,0.2715802310122156 l -8.075275335401892 19.377721104199637" fill="#ffeb16" stroke="none" /><path d="M 108.4095320186766 80.7573450057729 l 8.41513650519354 -19.255479156169272 a42.01399533488837,42.01399533488837 0 0,0 0.6583925122475134,0.29449059631364377 l -8.744442420296686 19.108184808945776" fill="#ffeb16" stroke="none" /><path d="M 109.06512990194946 81.05736502329252 l 14.51749893661083 -30.335989236273303 a54.630789736754416,54.630789736754416 0 0,0 0.842458158617475,0.41208850149649934 l -15.036117344490371 30.082306984679583" fill="#79ff26" stroke="none" /><path d="M 109.71004243097381 81.37971332152246 l 9.716513635526278 -18.632696066467197 a42.01399533488837,42.01399533488837 0 0,0 0.6366344385263234,0.33897197993791095 l -10.03493688983916 18.46315361880671" fill="#ffeb16" stroke="none" /><path d="M 110.02825361518725 81.54914285379988 l 10.04496180181702 -18.481598327716608 a42.03498833722092,42.03498833722092 0 0,0 0.6310368749571161,0.35002551715864433 l -10.360742864930236 18.306439895124814" fill="#ffeb16" stroke="none" /><line stroke="#e1ed5e" stroke-width="0.3" x1="143.13028292997686" x2="145.6673583964461" y1="26.7553504044142" y2="22.446841604673864" /><path d="M 143.63769802327073 25.89364864446614 a86.0,86.0 0 0,1 29.32050498858742,28.57503671076993" fill="none" id="id50" stroke="none" /><text fill="#e1ed5e" style="font-size:6.75px; font-family:Arial;" text-anchor="middle"><textPath startOffset="20.669276256404974" xlink:href="#id50">February</textPath></text><path d="M 110.65571695917076 81.90426304109057 l 17.075422478058034 -28.997800411661263 a54.65178273908697,54.65178273908697 0 0,0 0.8043369447805526,0.4829812248631978 l -17.57069217939602 28.700405186262145" fill="#79ff26" stroke="none" /><path d="M 111.8722381534696 82.67804972795209 l 25.12515311985519 -36.6583492761667 a65.44218593802066,65.44218593802066 0 0,0 0.9211919717903996,0.6430635396835905 l -25.75074018281935 36.221640920677984" fill="#35ff61" stroke="none" /><path d="M 113.31354834802062 83.75963576809568 l 21.307888275755758 -25.99215908225141 a54.609796734421856,54.609796734421856 0 0,0 0.7198758734423822,0.6005460568982889 l -21.750938483360034 25.62255084144125" fill="#7aff26" stroke="none" /><path d="M 113.59037401385872 83.9905735841838 l 13.925491533693965 -16.40419401154109 a42.51782739086971,42.51782739086971 0 0,0 0.5523683708633327,0.47712264283384254 l -14.205039384320157 16.162727236242528" fill="#fff116" stroke="none" /><path d="M 114.39649973595853 84.71141617570332 l 30.39527568378314 -32.27872946042777 a65.33722092635787,65.33722092635787 0 0,0 0.8099560144870313,0.7759195399322885 l -30.944904184135485 31.752197790189904" fill="#34ff60" stroke="none" /><path d="M 115.41159269507618 85.73525988315684 l 24.69655090657159 -22.8587588210259 a54.65178273908697,54.65178273908697 0 0,0 0.6313641974091758,0.6939798516809675 l -25.085312804822642 22.431441393787264" fill="#79ff26" stroke="none" /><path d="M 115.6541949942343 86.00192230759917 l 15.680276625347652 -14.021400047769704 a42.03498833722092,42.03498833722092 0 0,0 0.476374388137537,0.5420266068602245 l -15.91866207744378 13.750161163098182" fill="#ffeb16" stroke="none" /><path d="M 116.35404254752997 86.82634096563983 l 21.302216700531375 -17.159557869148255 a48.353882039320226,48.353882039320226 0 0,0 0.5151612676663863,0.6508894327056226 l -21.59364439883932 16.791348492527955" fill="#c3ff1e" stroke="none" /><path d="M 116.57777611688842 87.10902102172516 l 16.605396536943207 -12.912456783970075 a42.03498833722092,42.03498833722092 0 0,0 0.43806067045407504,0.5734354795608204 l -16.824609184751587 12.625500391168373" fill="#ffeb16" stroke="none" /><path d="M 117.01052211995028 87.68569379921539 l 27.46283894407168 -19.88097752175989 a54.90369876707764,54.90369876707764 0 0,0 0.5461216051096064,0.7681884302689875 l -27.800075647711246 19.406611864781397" fill="#76ff27" stroke="none" /><path d="M 117.21940702142032 87.97951657250589 l 17.248096469973166 -12.040510890718858 a42.03498833722092,42.03498833722092 0 0,0 0.4079600969511305,0.5952259734869102 l -17.452246303739624 11.7426501821619" fill="#ffeb16" stroke="none" /><path d="M 117.42321728460499 88.27688183743584 l 17.452246303739624 -11.7426501821619 a42.03498833722092,42.03498833722092 0 0,0 0.39768213775515115,0.6021414431247165 l -17.6512528804155 11.441328860698125" fill="#ffeb16" stroke="none" /><path d="M 117.81537515405839 88.88188828441811 l 18.61086341485272 -11.614555224374948 a42.93768743752082,42.93768743752082 0 0,0 0.3848689670448688,0.6286545336420301 l -18.80750034635299 11.293363574608364" fill="#fff717" stroke="none" /><line stroke="#e1ed5e" stroke-width="0.3" x1="172.87174338648825" x2="177.1583165268699" y1="56.24261187166439" y2="53.66864786411523" /><path d="M 173.72905801456457 55.72781907015455 a86.0,86.0 0 0,1 12.242430191666344,42.057860355516425" fill="none" id="id51" stroke="none" /><text fill="#e1ed5e" style="font-size:6.75px; font-family:Arial;" text-anchor="middle"><textPath startOffset="22.145653131862474" xlink:href="#id51">March</textPath></text><path d="M 118.18653347947321 89.5 l 29.47054725447458 -17.01482839053649 a55.02965678107297,55.02965678107297 0 0,0 0.4653062370782736,0.8221515361348002 l -29.75828685657423 16.506420084302572" fill="#75ff27" stroke="none" /><path d="M 118.53625476483649 90.13048839642627 l 18.548608150217923 -9.876089085482137 a42.01399533488837,42.01399533488837 0 0,0 0.33349495297381965,0.6395205452851026 l -18.71541117216669 9.556222297092535" fill="#ffeb16" stroke="none" /><path d="M 118.70294669586156 90.45014215332178 l 18.77150131553982 -9.584862323956951 a42.07697434188604,42.07697434188604 0 0,0 0.32295097029584324,0.6461182768701662 l -18.9332721990474 9.261212190923034" fill="#ffec16" stroke="none" /><path d="M 119.0197475246899 91.09779779509293 l 19.08946336033522 -8.93483273614799 a42.07697434188604,42.07697434188604 0 0,0 0.3005809439608717,0.6568236087781086 l -19.24002876915114 8.605820145155198" fill="#ffec16" stroke="none" /><path d="M 119.31412917781788 91.75594674310238 l 31.066078487613094 -13.260261603147205 a54.777740753082306,54.777740753082306 0 0,0 0.36172652081586454,0.8680119680418784 l -31.289130852965442 12.725017125664047" fill="#78ff26" stroke="none" /><path d="M 119.58574465831526 92.42381321644754 l 19.61837668873565 -7.588809553934912 a42.03498833722092,42.03498833722092 0 0,0 0.25455051060534994,0.6752254718006312 l -19.745757883155445 7.250915801940122" fill="#ffeb16" stroke="none" /><path d="M 119.71291397450082 92.76114493625339 l 19.745757883155445 -7.250915801940122 a42.03498833722092,42.03498833722092 0 0,0 0.2429218588957124,0.6794956737820169 l -19.8673199120951 6.910885171777188" fill="#ffeb16" stroke="none" /><path d="M 119.94978838288452 93.4421083053983 l 19.94314066932808 -6.555706459115318 a41.99300233255582,41.99300233255582 0 0,0 0.21923403552838377,0.6867474937747373 l -20.052739420633724 6.212389931649193" fill="#ffeb16" stroke="none" /><path d="M 120.16314734710363 94.1308016681162 l 32.27044208868336 -9.393455377553444 a54.609796734421856,54.609796734421856 0 0,0 0.2542775367710635,0.9023412735291186 l -32.426938117529005 8.838106180121311" fill="#7aff26" stroke="none" /><path d="M 120.35273937422433 94.82641323984039 l 24.455840780890675 -6.216579092680959 a46.23358880373209,46.23358880373209 0 0,0 0.18892469587033123,0.7708772298614851 l -24.5589530032773 5.795846038211379" fill="#ddff1b" stroke="none" /><path d="M 120.43855184770803 95.1765574152323 l 24.538521262010008 -5.791024202905046 a46.21259580139953,46.21259580139953 0 0,0 0.17558396210368912,0.7736553344440754 l -24.634316085671365 5.368934534521944" fill="#ddff1b" stroke="none" /><path d="M 120.592083275326 95.88100663000786 l 20.626391977884023 -4.125856071374995 a42.03498833722092,42.03498833722092 0 0,0 0.13546016736457295,0.7087848356697366 l -20.694178437530752 3.771168670671944" fill="#ffeb16" stroke="none" /><path d="M 120.7213421655516 96.59031103205396 l 37.30670167293414 -6.138803563416353 a58.80839720093302,58.80839720093302 0 0,0 0.15536200602133265,0.9975355278401092 l -37.40658517109373 5.497479853644802" fill="#4cff2c" stroke="none" /><path d="M 120.82617615685814 97.30363454192243 l 20.84005564779906 -2.6981624360569625 a42.01399533488837,42.01399533488837 0 0,0 0.08646462982238567,0.7160511708603228 l -20.883302363881107 2.340017588273227" fill="#ffeb16" stroke="none" /><path d="M 120.86939407059847 97.66154086499901 l 20.90416480380506 -2.3423552681815916 a42.03498833722092,42.03498833722092 0 0,0 0.07419697379627854,0.7177884154103402 l -20.941294170083005 1.98316233048832" fill="#ffeb16" stroke="none" /><path d="M 120.9064616781168 98.02013634271609 l 4.5978889395391835 -0.43542486298146754 a25.61846051316228,25.61846051316228 0 0,0 0.03770351459632487,0.43817199118883754 l -4.604686076833249 0.35643182441696797" fill="#ff0000" stroke="none" /><path d="M 120.99303781780057 99.45929381324524 l 44.51139607952851 -1.1464556702167774 a65.52615794735088,65.52615794735088 0 0,0 0.019310148120656883,1.1247193198486045 l -44.52451765924783 0.38218943439910646" fill="#35ff62" stroke="none" /><line stroke="#e1ed5e" stroke-width="0.3" x1="184.99686870605535" x2="189.99668451229388" y1="99.2704041080226" y2="99.22748670261217" /><path d="M 185.99683186730306 99.26182062694052 a86.0,86.0 0 0,1 -10.086455211305974,41.156179273409016" fill="none" id="id52" stroke="none" /><text fill="#e1ed5e" style="font-size:6.75px; font-family:Arial;" text-anchor="middle"><textPath startOffset="21.40746469413373" xlink:href="#id52">April</textPath></text><path d="M 120.99922638620191 99.81974689727618 l 21.24413572426158 -0.18235535483823467 a42.244918360546485,42.244918360546485 0 0,0 0.0,0.7252169151241206 l -21.24413572426158 -0.1823553548382321" fill="#ffee16" stroke="none" /><path d="M 120.99303781780057 100.54070618675476 l 21.007028512780785 0.541066537429033 a42.01399533488837,42.01399533488837 0 0,0 -0.024758873465823995,0.7208275866568075 l -20.994644952318115 -0.9016003886499513" fill="#ffeb16" stroke="none" /><path d="M 120.98066250479742 100.90099992219065 l 34.14513684552836 1.4663390936284921 a55.17660779740087,55.17660779740087 0 0,0 -0.04876143523323042,0.9459588168025588 l -34.11493382083856 -2.0522697038077817" fill="#73ff27" stroke="none" /><path d="M 120.93736805541906 101.62068470465957 l 21.13969517091628 1.6363461030051638 a42.20293235588137,42.20293235588137 0 0,0 -0.062111416697742505,0.7218288114886406 l -21.108490131520796 -1.9989959618694617" fill="#ffed16" stroke="none" /><path d="M 120.86939407059847 102.33845913500097 l 20.90416480380506 2.342355268181589 a42.03498833722092,42.03498833722092 0 0,0 -0.08650783333495515,0.7164089579210545 l -20.860874884210443 -2.7008579030260518" fill="#ffeb16" stroke="none" /><path d="M 120.82617615685814 102.69636545807757 l 21.381355794495132 2.7682445772532485 a42.55981339553482,42.55981339553482 0 0,0 -0.10002667454555532,0.7237431887794343 l -21.330684603394367 -3.134876074232768" fill="#fff216" stroke="none" /><path d="M 120.7213421655516 103.40968896794604 l 20.755866227806774 3.4153698892521778 a42.03498833722092,42.03498833722092 0 0,0 -0.12327297278378821,0.7110057484991762 l -20.694178437530752 -3.771168670671942" fill="#ffeb16" stroke="none" /><path d="M 120.592083275326 104.11899336999214 l 33.039280563377105 6.608781431693477 a54.69376874375208,54.69376874375208 0 0,0 -0.19205922432414768,0.9190729146128765 l -32.92096362822859 -7.174970797591763" fill="#79ff26" stroke="none" /><path d="M 120.43855184770803 104.8234425847677 l 20.47260474982017 4.831478976944928 a42.03498833722092,42.03498833722092 0 0,0 -0.1717679200988373,0.7008717299497319 l -20.386649303205036 -5.18220653150276" fill="#ffeb16" stroke="none" /><path d="M 120.35273937422433 105.17358676015961 l 20.386649303205036 5.18220653150276 a42.03498833722092,42.03498833722092 0 0,0 -0.18377400493368384,0.6978198301341456 l -20.294685817466625 -5.531406866009708" fill="#ffeb16" stroke="none" /><path d="M 120.16314734710363 105.8691983318838 l 20.196741394666287 5.878977069524389 a42.03498833722092,42.03498833722092 0 0,0 -0.20762017518766962,0.6911000383973755 l -20.092844899474986 -6.224814711512488" fill="#ffeb16" stroke="none" /><path d="M 119.94978838288452 106.5578916946017 l 32.16828589962619 10.574354518553008 a54.86171276241253,54.86171276241253 0 0,0 -0.3017775057889565,0.8921515735163552 l -31.982022972264872 -11.125007766543524" fill="#77ff27" stroke="none" /><path d="M 119.71291397450082 107.23885506374661 l 23.68702692170943 8.698204385161702 a46.23358880373209,46.23358880373209 0 0,0 -0.2799758987130926,0.7426693344742393 l -23.534220339181896 -9.103541999830101" fill="#ddff1b" stroke="none" /><path d="M 119.58574465831526 107.57618678355244 l 19.598797470483426 7.581235891705433 a42.01399533488837,42.01399533488837 0 0,0 -0.26597124808510125,0.6704212904531026 l -19.4657675474322 -7.9165581993720995" fill="#ffeb16" stroke="none" /><path d="M 119.31412917781788 108.2440532568976 l 19.346308666617976 8.257788767155683 a42.03498833722092,42.03498833722092 0 0,0 -0.2889727659860337,0.6612262402054317 l -19.201702018614974 -8.588677077136959" fill="#ffeb16" stroke="none" /><path d="M 119.0197475246899 108.90220220490707 l 30.70665670014081 14.372265805656372 a54.90369876707764,54.90369876707764 0 0,0 -0.4068644925180042,0.8501903061636781 l -30.455412949662897 -14.897268613885155" fill="#76ff27" stroke="none" /><path d="M 118.70294669586154 109.54985784667822 l 20.790746476972384 10.615903291075828 a44.34421859380207,44.34421859380207 0 0,0 -0.3519915917713251,0.674990289052571 l -20.60544681622611 -10.971239823232901" fill="#f5ff19" stroke="none" /><path d="M 118.5362547648365 109.86951160357373 l 20.420146035504647 10.872577594606705 a44.13428857047651,44.13428857047651 0 0,0 -0.3618058580393393,0.6656820277493092 l -20.23049482784997 -11.221514455830617" fill="#f8ff18" stroke="none" /><line stroke="#e1ed5e" stroke-width="0.3" x1="174.33088141563837" x2="178.70328620479359" y1="141.23008692659167" y2="143.65538615756765" /><path d="M 175.20536237346943 141.71514677278685 a86.0,86.0 0 0,1 -30.301960400862466,31.631185727798858" fill="none" id="id53" stroke="none" /><text fill="#e1ed5e" style="font-size:6.75px; font-family:Arial;" text-anchor="middle"><textPath startOffset="22.145653131862474" xlink:href="#id53">May</textPath></text><path d="M 118.18653347947321 110.5 l 21.852928932682573 12.61679440186604 a46.23358880373209,46.23358880373209 0 0,0 -0.40273042225013,0.6839243022607526 l -21.633124800302678 -12.990069872420342" fill="#ddff1b" stroke="none" /><path d="M 117.81537515405839 111.11811171558189 l 29.065003916784352 18.138712082468817 a55.26057980673109,55.26057980673109 0 0,0 -0.509140216338003,0.8004529860255006 l -28.749346008820456 -18.63497874317299" fill="#72ff27" stroke="none" /><path d="M 117.423217284605 111.72311816256416 l 19.21140486329821 12.926290569785 a44.15528157280906,44.15528157280906 0 0,0 -0.4285380742070405,0.6252498572835794 l -18.98667705227585 -13.254175162138623" fill="#f7ff18" stroke="none" /><path d="M 117.21940702142032 112.02048342749411 l 18.969463383144145 13.242158684203776 a44.13428857047651,44.13428857047651 0 0,0 -0.43899935807115564,0.6175075745228784 l -18.739348926543027 -13.565843485436158" fill="#f8ff18" stroke="none" /><path d="M 116.79662413953412 112.60449989151573 l 16.82460918475159 12.625500391168371 a42.03498833722092,42.03498833722092 0 0,0 -0.43806067045407976,0.5734354795608297 l -16.605396536943207 -12.912456783970077" fill="#ffeb16" stroke="none" /><path d="M 116.1254893667686 113.45245675266167 l 27.420317307104355 22.875003934965857 a56.70909696767744,56.70909696767744 0 0,0 -0.6300257438648263,0.7421687420955657 l -27.023596999732415 -23.342339459510978" fill="#62ff29" stroke="none" /><path d="M 115.89218393027572 113.72728997021213 l 17.68210667883726 15.273382609309653 a44.36521159613462,44.36521159613462 0 0,0 -0.5027823573817286,0.5720740282160618 l -17.417313257496946 -15.574668915337009" fill="#f5ff19" stroke="none" /><path d="M 115.6541949942343 113.99807769240083 l 15.836766412027773 14.161334179982976 a42.244918360546485,42.244918360546485 0 0,0 -0.4880340153340791,0.5364348738281691 l -15.591334695851813 -14.431106629368818" fill="#ffee16" stroke="none" /><path d="M 115.16444852881244 114.52719865689866 l 15.310989350983572 14.667581449651095 a42.20293235588137,42.20293235588137 0 0,0 -0.505657848137115,0.5188494982137541 l -15.05694470169565 -14.928253639932587" fill="#ffed16" stroke="none" /><path d="M 114.65682725009322 115.03919595460226 l 23.618932549633715 24.235105510315403 a54.84071976007997,54.84071976007997 0 0,0 -0.6798356308808894,0.6512671558797628 l -23.199424432887515 -24.636984796500744" fill="#77ff27" stroke="none" /><path d="M 114.13192950727249 115.5334660781643 l 14.155474874662149 15.559346561466803 a42.03498833722092,42.03498833722092 0 0,0 -0.537917688727747,0.48100931422542303 l -13.886292159111024 -15.800051405575614" fill="#ffeb16" stroke="none" /><path d="M 113.86319453409587 115.77377054828091 l 13.872433584101934 15.784282891198794 a42.01399533488837,42.01399533488837 0 0,0 -0.5458228602145335,0.47146878663173447 l -13.599431244124544 -16.020095810295246" fill="#ffeb16" stroke="none" /><path d="M 113.31354834802062 116.24036423190432 l 13.335730201316222 16.267422486206062 a42.03498833722092,42.03498833722092 0 0,0 -0.5619662187524151,0.4526802063255663 l -13.054513212208555 -16.493950986325032" fill="#ffeb16" stroke="none" /><path d="M 112.7482090630111 116.68781488649013 l 20.46680148803316 26.791700140989484 a54.71476174608464,54.71476174608464 0 0,0 -0.7512780005687164,0.5637730176016886 l -20.003870498553674 -27.139092185855187" fill="#78ff26" stroke="none" /><path d="M 112.16784306229584 117.11559508785304 l 12.20027983153888 17.161221465961276 a42.05598133955348,42.05598133955348 0 0,0 -0.5919978347369916,0.4132604655152338 l -11.90388690562813 -17.368126747281632" fill="#ffeb16" stroke="none" /><path d="M 111.8722381534696 117.32195027204791 l 11.90388690562813 17.368126747281632 a42.05598133955348,42.05598133955348 0 0,0 -0.599004767923029,0.4030371405920366 l -11.6039858496081 -17.56991356193079" fill="#ffeb16" stroke="none" /><path d="M 111.27062007382361 117.71928675628689 l 11.300665045696517 17.76652244240829 a42.05598133955348,42.05598133955348 0 0,0 -0.6124870329802777,0.3822372079247912 l -10.994013883926524 -17.95789544717463" fill="#ffeb16" stroke="none" /><line stroke="#e1ed5e" stroke-width="0.3" x1="143.1302829299769" x2="145.66735839644613" y1="173.24464959558577" y2="177.55315839532614" /><path d="M 143.63769802327073 174.10635135553383 a86.0,86.0 0 0,1 -40.68552437913181,11.842963189579606" fill="none" id="id54" stroke="none" /><text fill="#e1ed5e" style="font-size:6.75px; font-family:Arial;" text-anchor="middle"><textPath startOffset="21.407464694133747" xlink:href="#id54">June</textPath></text><path d="M 110.65571695917076 118.09573695890943 l 17.086074644295138 29.015890118717817 a54.67277574141953,54.67277574141953 0 0,0 -0.8128215423547838,0.46928273628166306 l -16.585460634079954 -29.30491975227565" fill="#79ff26" stroke="none" /><path d="M 110.02825361518725 118.45085714620011 l 12.039919285411422 22.15209540078607 a46.21259580139953,46.21259580139953 0 0,0 -0.70025546835908,0.37284659485510085 l -11.657875001265788 -22.355512463363738" fill="#ddff1b" stroke="none" /><path d="M 109.71004243097381 118.62028667847754 l 9.72622044235497 18.651310148451678 a42.03498833722092,42.03498833722092 0 0,0 -0.6426804995556518,0.3281572423529732 l -9.404612721085735 -18.81552534247749" fill="#ffeb16" stroke="none" /><path d="M 109.06512990194946 118.94263497670748 l 14.553747373406367 30.411734527749637 a54.71476174608464,54.71476174608464 0 0,0 -0.8507136775203908,0.39817695613128895 l -14.02954498201447 -30.65708771545146" fill="#78ff26" stroke="none" /><path d="M 108.07796709384702 119.3841803445677 l 8.091425886072694 19.416476546408028 a42.03498833722092,42.03498833722092 0 0,0 -0.668447468053656,0.27185176598740324 l -7.756923956828597 -19.55251556897472" fill="#ffeb16" stroke="none" /><path d="M 107.06938296918513 119.77432235084164 l 7.095295402594333 19.846804038898714 a42.07697434188604,42.07697434188604 0 0,0 -0.6822365187248531,0.23731727589638976 l -6.753553111824458 -19.965679747363694" fill="#ffec16" stroke="none" /><path d="M 106.38641147887787 120.00534299687104 l 6.403436234569655 20.058672801594447 a42.05598133955348,42.05598133955348 0 0,0 -0.6896367199072102,0.21365121868779322 l -6.058158881790821 -20.165640608088886" fill="#ffeb16" stroke="none" /><path d="M 105.69591212413111 120.21278271476187 l 9.26416097230388 32.87523906389626 a55.15561479506831,55.15561479506831 0 0,0 -0.9135308889812506,0.24898690608326302 l -8.698448682387934 -33.02942646412367" fill="#74ff27" stroke="none" /><path d="M 104.64783097203109 120.47920084513623 l 5.533722113651134 24.382600672999587 a46.002665778073975,46.002665778073975 0 0,0 -0.7716127534641123,0.1681694082735531 l -5.114346943567885 -24.47400153940686" fill="#e0ff1b" stroke="none" /><path d="M 103.94208987418118 120.62667999033965 l 3.9486578346513204 20.66104633487537 a42.03498833722092,42.03498833722092 0 0,0 -0.7099214447046982,0.12937133595278197 l -3.5934016563955646 -20.725785844759518" fill="#ffeb16" stroke="none" /><path d="M 103.58742460773223 120.69131181640829 l 3.5934016563955646 20.725785844759518 a42.03498833722092,42.03498833722092 0 0,0 -0.7120376671643435,0.11716552716977877 l -3.237086486178149 -20.784417370424965" fill="#ffeb16" stroke="none" /><path d="M 103.2317021107853 120.74984581791261 l 6.044499816007303 38.810024850364385 a60.27790736421193,60.27790736421193 0 0,0 -1.023791249681905,0.15046205751530387 l -5.377383460717712 -38.90806798117857" fill="#3cff2e" stroke="none" /><path d="M 102.15924093988457 120.88869738790638 l 2.594542762153863 25.099847644381995 a46.23358880373209,46.23358880373209 0 0,0 -0.7901550099017675,0.07482850095876417 l -2.16328818886708 -25.140687900845943" fill="#ddff1b" stroke="none" /><path d="M 101.44090949804482 120.95050786540614 l 1.4433102136363603 20.985413743222534 a42.03498833722092,42.03498833722092 0 0,0 -0.7203108552949956,0.043332112364903926 l -1.0828550062088995 -21.007097833412132" fill="#ffeb16" stroke="none" /><path d="M 101.08105385017728 120.97215588758144 l 1.1898436744870247 23.08264941575525 a44.113295568143954,44.113295568143954 0 0,0 -0.7565939370784307,0.032491399081493455 l -0.7934239768077643 -23.099673383262573" fill="#f8ff18" stroke="none" /><path d="M 100.72087961077811 120.9876233191556 l 1.1537436756305453 33.589988271211055 a54.609796734421856,54.609796734421856 0 0,0 -0.937173507828029,0.024138265178356554 l -0.5769568537317725 -33.60484425373946" fill="#7aff26" stroke="none" /><line stroke="#e1ed5e" stroke-width="0.3" x1="101.45913802915013" x2="101.54496967792366" y1="184.9874750549273" y2="189.98673829345242" /><path d="M 101.47630435890484 185.9873277026323 a86.0,86.0 0 0,1 -42.54439059252881,-10.42667462771756" fill="none" id="id55" stroke="none" /><text fill="#e1ed5e" style="font-size:6.75px; font-family:Arial;" text-anchor="middle"><textPath startOffset="22.145653131862474" xlink:href="#id55">July</textPath></text><path d="M 99.63950707515114 120.99690560180557 l -0.36073317338257094 21.01089887444922 a42.01399533488837,42.01399533488837 0 0,0 -0.7210135495898878,-0.018570751426296304 l 0.7213600370432027 -21.001610405672878" fill="#ffeb16" stroke="none" /><path d="M 98.91894614982273 120.97215588758144 l -1.0817743125899142 20.98613266591372 a42.01399533488837,42.01399533488837 0 0,0 -0.7199511195590778,-0.043310471556331484 l 1.4418697842814383 -20.964470216532696" fill="#ffeb16" stroke="none" /><path d="M 98.55909050195518 120.95050786540614 l -1.4418697842814383 20.964470216532696 a42.01399533488837,42.01399533488837 0 0,0 -0.7191015512727366,-0.055663007984571106 l 1.801540330329411 -20.93662944155307" fill="#ffeb16" stroke="none" /><path d="M 98.19965949673042 120.92268563240118 l -2.922778717737226 33.9671190939882 a55.092635788070645,55.092635788070645 0 0,0 -0.9415605256480423,-0.0891667607156577 l 3.5054388067702837 -33.91194057776736" fill="#74ff27" stroke="none" /><path d="M 97.12497278360702 120.80226474461374 l -2.876943262521862 20.816128299925044 a42.01399533488837,42.01399533488837 0 0,0 -0.7135874928128824,-0.10487278770860047 l 3.233855860942429 -20.763674438917562" fill="#ffeb16" stroke="none" /><path d="M 96.41257539226777 120.69131181640829 l -3.5934016563955598 20.725785844759518 a42.03498833722092,42.03498833722092 0 0,0 -0.7099214447046982,-0.1293713359527773 l 3.948657834651315 -20.661046334875373" fill="#ffeb16" stroke="none" /><path d="M 96.05791012581884 120.62667999033965 l -3.948657834651315 20.661046334875373 a42.03498833722092,42.03498833722092 0 0,0 -0.7075960051367992,-0.14153901840926061 l 4.302750325319073 -20.59021791980325" fill="#ffeb16" stroke="none" /><path d="M 95.70440661134978 120.55596938700252 l -8.167496126503869 39.08442563220139 a60.92869043652116,60.92869043652116 0 0,0 -1.0219702227581402,-0.22273365345875065 l 8.837228765881145 -38.93846052060891" fill="#35ff2f" stroke="none" /><path d="M 94.6519064749342 120.30758222061772 l -5.351657732679982 20.32111609747252 a42.01399533488837,42.01399533488837 0 0,0 -0.695868999929387,-0.18966219032274478 l 5.699708133544064 -20.22625341300563" fill="#ffeb16" stroke="none" /><path d="M 93.95794788825049 120.11202640906438 l -6.046078804259837 20.12542995882051 a42.01399533488837,42.01399533488837 0 0,0 -0.6889482306693474,-0.21343792296197245 l 6.390667667800818 -20.018675448051887" fill="#ffeb16" stroke="none" /><path d="M 93.61358852112213 120.00534299687104 l -6.390667667800818 20.018675448051887 a42.01399533488837,42.01399533488837 0 0,0 -0.6851827667987164,-0.2252331849057856 l 6.733373172247278 -19.906021341744083" fill="#ffeb16" stroke="none" /><path d="M 93.27111125876986 119.89276391827306 l -10.97116048345186 32.43428652186274 a55.239586804398535,55.239586804398535 0 0,0 -0.8956552600721752,-0.31155539263697 l 11.526321515569055 -32.24117269665717" fill="#73ff27" stroke="none" /><path d="M 92.25597844496254 119.51999308798841 l -7.756923956828592 19.552515568974723 a42.03498833722092,42.03498833722092 0 0,0 -0.668447468053656,-0.27185176598740324 l 8.091425886072688 -19.416476546408028" fill="#ffeb16" stroke="none" /><path d="M 91.59046798132341 119.24265499422711 l -15.98119330306984 36.56809777809969 a60.907697434188606,60.907697434188606 0 0,0 -0.9544717565959854,-0.4269230763347626 l 16.606578462521462 -36.288370950855075" fill="#36ff2f" stroke="none" /><path d="M 91.26138138417905 119.09545874513695 l -8.805592367291757 19.241808478938406 a42.16094635121626,42.16094635121626 0 0,0 -0.6555249913109874,-0.3068187953307489 l 9.134606072474234 -19.087813452037132" fill="#ffed16" stroke="none" /><path d="M 90.93487009805054 118.94263497670748 l -9.623959969213928 20.110374886967698 a43.29456847717428,43.29456847717428 0 0,0 -0.6676429649502088,-0.32657763017277336 l 9.967763183426207 -19.9422035066977" fill="#fffb17" stroke="none" /><path d="M 89.97174638481275 118.45085714620012 l -10.034936889839159 18.46315361880671 a42.01399533488837,42.01399533488837 0 0,0 -0.6307217241955215,-0.3498507083436778 l 10.350402802190782 -18.288169995029886" fill="#ffeb16" stroke="none" /><line stroke="#e1ed5e" stroke-width="0.3" x1="58.13341422392154" x2="55.67067388415222" y1="173.97424548756322" y2="178.32567169271397" /><path d="M 57.64086615596768 174.84453072859336 a86.0,86.0 0 0,1 -31.369924170532247,-30.572349798747897" fill="none" id="id56" stroke="none" /><text fill="#e1ed5e" style="font-size:6.75px; font-family:Arial;" text-anchor="middle"><textPath startOffset="22.145653131862474" xlink:href="#id56">August</textPath></text><path d="M 89.34428304082925 118.09573695890944 l -10.66281840332881 18.107796763613806 a42.01399533488837,42.01399533488837 0 0,0 -0.6183404630553838,-0.3712956817002146 l 10.97209162294162 -17.922087081377672" fill="#ffeb16" stroke="none" /><path d="M 89.03521579738668 117.91015095944536 l -17.57069217939602 28.700405186262145 a54.65178273908697,54.65178273908697 0 0,0 -0.7959274089144768,-0.4967175696992711 l 18.06078371710021 -28.394551819721325" fill="#79ff26" stroke="none" /><path d="M 88.72937992617639 117.7192867562869 l -11.289398181244172 17.74880906011277 a42.03498833722092,42.03498833722092 0 0,0 -0.6055327580913505,-0.392499017955583 l 11.592416571592533 -17.55239620045329" fill="#ffeb16" stroke="none" /><path d="M 87.83215693770417 117.11559508785305 l -13.404494889686772 18.855100753229646 a44.13428857047651,44.13428857047651 0 0,0 -0.6137166836292811,-0.44428355046653667 l 13.726192583690008 -18.622216431390044" fill="#f8ff18" stroke="none" /><path d="M 87.2517909369889 116.68781488649013 l -12.782192959213736 16.732300897517092 a42.05598133955348,42.05598133955348 0 0,0 -0.5699387646592062,-0.44318783064279677 l 13.067541668508172 -16.5104120152535" fill="#ffeb16" stroke="none" /><path d="M 86.96720088162412 116.46651593811092 l -24.16778643577533 30.535208662308317 a59.942019326891035,59.942019326891035 0 0,0 -0.801365511874984,-0.6455233306783222 l 24.688402718005577 -30.115837037836584" fill="#40ff2d" stroke="none" /><path d="M 86.68645165197938 116.24036423190432 l -13.349039313293583 16.283657438787113 a42.05598133955348,42.05598133955348 0 0,0 -0.5543892874665195,-0.4624912611428391 l 13.626602934921994 -16.052103993732405" fill="#ffeb16" stroke="none" /><path d="M 85.86807049272751 115.53346607816431 l -14.141347654228355 15.543818271485307 a42.01399533488837,42.01399533488837 0 0,0 -0.52931677875073,-0.489927708171012 l 14.406094204293051 -15.298772817181918" fill="#ffeb16" stroke="none" /><path d="M 85.34317274990678 115.03919595460226 l -14.666595212272545 15.049218744308764 a42.01399533488837,42.01399533488837 0 0,0 -0.5121867749215945,-0.5078091364835484 l 14.922773907324101 -14.795229597596556" fill="#ffeb16" stroke="none" /><path d="M 85.08716467003676 114.78537596483092 l -14.937681773365384 14.810010046745 a42.03498833722092,42.03498833722092 0 0,0 -0.5036456132912653,-0.5167847679937027 l 15.189714187807457 -14.551402586683562" fill="#ffeb16" stroke="none" /><path d="M 84.83555147118756 114.52719865689866 l -24.28535142601552 23.264817309248574 a54.630789736754416,54.630789736754416 0 0,0 -0.6429371896104875,-0.6827770150660998 l 24.68114444936226 -22.84449883423798" fill="#79ff26" stroke="none" /><path d="M 84.1078160697243 113.72728997021213 l -15.90277518914294 13.736438447366549 a42.01399533488837,42.01399533488837 0 0,0 -0.4667663581150611,-0.5498495961922278 l 16.136236110765115 -13.461422068724767" fill="#ffeb16" stroke="none" /><path d="M 83.64595745247003 113.17365903436017 l -16.38129020255751 13.195607816490064 a42.03498833722092,42.03498833722092 0 0,0 -0.4478399037441317,-0.5658310886053028 l 16.605396536943204 -12.91245678397008" fill="#ffeb16" stroke="none" /><path d="M 83.4222238831116 112.89097897827486 l -26.532175504636793 20.63158015083443 a54.609796734421856,54.609796734421856 0 0,0 -0.5691069539243856,-0.7449792712656608 l 26.882434435915474 -20.1730799663279" fill="#7aff26" stroke="none" /><path d="M 83.20337586046588 112.60449989151573 l -16.89177329327356 12.675901590334707 a42.11896034655115,42.11896034655115 0 0,0 -0.42900764549314385,-0.5820312644153993 l 17.106882958350532 -12.384064016650429" fill="#ffec16" stroke="none" /><path d="M 82.576782715395 111.72311816256416 l -17.452246303739624 11.7426501821619 a42.03498833722092,42.03498833722092 0 0,0 -0.3976821377551465,-0.6021414431247119 l 17.6512528804155 -11.441328860698126" fill="#ffeb16" stroke="none" /><path d="M 82.18462484594161 111.11811171558189 l -17.827248113174715 11.125521320190746 a42.01399533488837,42.01399533488837 0 0,0 -0.3765895172974843,-0.615130674704485 l 18.015605594927603 -10.817853529361702" fill="#ffeb16" stroke="none" /><path d="M 81.99639281039703 110.81064883170644 l -29.06613689890917 17.453380069849302 a54.90369876707764,54.90369876707764 0 0,0 -0.4782538055054396,-0.8121795180169069 l 29.361464414544383 -16.951849383538836" fill="#76ff27" stroke="none" /><line stroke="#e1ed5e" stroke-width="0.3" x1="26.387840678322732" x2="22.057713659400548" y1="142.50000000000003" y2="145.00000000000006" /><path d="M 25.521815274538298 143.00000000000003 a86.0,86.0 0 0,1 -11.493303480769221,-40.785679425670985" fill="none" id="id57" stroke="none" /><text fill="#e1ed5e" style="font-size:6.75px; font-family:Arial;" text-anchor="middle"><textPath startOffset="21.40746469413373" xlink:href="#id57">September</textPath></text><path d="M 81.81346652052679 110.50000000000001 l -18.78042894131539 10.84288570476509 a42.68577140953016,42.68577140953016 0 0,0 -0.3609318471741394,-0.6377319901350745 l 18.963794153510904 -10.518896944530894" fill="#fff417" stroke="none" /><path d="M 81.4637452351635 109.86951160357371 l -19.1045104923823 10.172075771360715 a42.64378540486504,42.64378540486504 0 0,0 -0.3384940445407062,-0.6491069625195466 l 19.276312605897957 -9.842622565736665" fill="#fff316" stroke="none" /><path d="M 81.29705330413844 109.54985784667822 l -18.734107886624393 9.565768972714004 a42.03498833722092,42.03498833722092 0 0,0 -0.322628717539852,-0.6454735554896158 l 18.895556517375983 -9.242763561060636" fill="#ffeb16" stroke="none" /><path d="M 80.9802524753101 108.90220220490708 l -19.05143654089231 8.917034264562037 a42.03498833722092,42.03498833722092 0 0,0 -0.3002810128676035,-0.6561682052103844 l 19.201702018614974 -8.588677077136964" fill="#ffeb16" stroke="none" /><path d="M 80.83023694016515 108.57439118712176 l -19.182538643346895 8.580105543127846 a42.01399533488837,42.01399533488837 0 0,0 -0.28882844797405005,-0.6608960123511498 l 19.327000973337913 -8.249547461000848" fill="#ffeb16" stroke="none" /><path d="M 80.68587082218212 108.24405325689762 l -30.969540021212804 13.219055072372987 a54.67277574141953,54.67277574141953 0 0,0 -0.36103338108511784,-0.8663486850167508 l 31.191899246834407 -12.685473877914955" fill="#79ff26" stroke="none" /><path d="M 80.28708602549918 107.23885506374661 l -19.726051537962675 7.243679359024013 a42.01399533488837,42.01399533488837 0 0,0 -0.24280053950555308,-0.6791563218556973 l 19.84749224751217 -6.903988080787395" fill="#ffeb16" stroke="none" /><path d="M 80.05021161711548 106.5578916946017 l -19.98302695066673 6.568817872033549 a42.03498833722092,42.03498833722092 0 0,0 -0.2194532330309997,-0.6874341268296601 l 20.092844899474983 -6.224814711512497" fill="#ffeb16" stroke="none" /><path d="M 79.94057633289273 106.21446072829308 l -20.072792160054355 6.218602321580849 a42.01399533488837,42.01399533488837 0 0,0 -0.20751648607071227,-0.690754891050082 l 20.176584966128697 -5.873109826940043" fill="#ffeb16" stroke="none" /><path d="M 79.83685265289637 105.86919833188381 l -32.27044208868335 9.393455377553455 a54.609796734421856,54.609796734421856 0 0,0 -0.2542775367710817,-0.9023412735291642 l 32.42693811752901 -8.838106180121295" fill="#7aff26" stroke="none" /><path d="M 79.64726062577567 105.17358676015961 l -42.970662004360314 10.922974246041736 a65.33722092635787,65.33722092635787 0 0,0 -0.2669880256305789,-1.0894022544599047 l 43.15183755650719 -10.183716166973731" fill="#34ff60" stroke="none" /><path d="M 79.56144815229197 104.8234425847677 l -20.574763456156607 4.855588153476586 a42.13995334888371,42.13995334888371 0 0,0 -0.1601100272241696,-0.7054743222323172 l 20.65508434493844 -4.501679497305243" fill="#ffec16" stroke="none" /><path d="M 79.407916724674 104.11899336999214 l -20.60580675634921 4.121738450545283 a42.01399533488837,42.01399533488837 0 0,0 -0.13539251620724088,-0.7084308562279172 l 20.67352556483861 -3.7674050292840517" fill="#ffeb16" stroke="none" /><path d="M 79.34024301695615 103.76489593502545 l -33.08590205281863 6.029353503409641 a54.630789736754416,54.630789736754416 0 0,0 -0.1602117693562568,-0.924058911025969 l 33.18452863966712 -5.460501559463079" fill="#79ff26" stroke="none" /><path d="M 79.2786578344484 103.40968896794605 l -20.735151790453678 3.4119613364685035 a42.01399533488837,42.01399533488837 0 0,0 -0.11099398907092362,-0.7126610315506745 l 20.79066727166287 -3.0555121229863786" fill="#ffeb16" stroke="none" /><path d="M 79.17382384314188 102.69636545807758 l -22.96361776176059 2.973100066903938 a44.15528157280906,44.15528157280906 0 0,0 -0.09087138810447751,-0.7525454510540988 l 23.01127123612473 -2.57846093892644" fill="#f7ff18" stroke="none" /><path d="M 79.13060592940153 102.33845913500099 l -20.90416480380506 2.3423552681815893 a42.03498833722092,42.03498833722092 0 0,0 -0.07419697379627854,-0.7177884154103402 l 20.941294170083005 -1.9831623304883177" fill="#ffeb16" stroke="none" /><path d="M 79.03789590574601 101.26102812881392 l -62.886312282761985 3.783084386441755 a84.0,84.0 0 0,0 -0.07423364217370931,-1.440112826493077 l 62.94198751439227 -2.7029997665719474" fill="#4dd2ff" stroke="none" /><line stroke="#e1ed5e" stroke-width="0.3" x1="15.003131293944662" x2="10.003315487706104" y1="100.72959589197737" y2="100.7725132973878" /><path d="M 14.003168132696942 100.73817937305945 a86.0,86.0 0 0,1 10.791469493833604,-42.45332614584628" fill="none" id="id58" stroke="none" /><text fill="#e1ed5e" style="font-size:6.75px; font-family:Arial;" text-anchor="middle"><textPath startOffset="22.145653131862435" xlink:href="#id58">October</textPath></text><path d="M 79.00077361379809 100.18025310272382 l -21.034213434496145 0.18055342445445088 a42.03498833722092,42.03498833722092 0 0,0 0.0,-0.7216130543565291 l 21.034213434496145 0.18055342445444314" fill="#ffeb16" stroke="none" /><path d="M 79.00696218219943 99.45929381324524 l -23.10563275981183 -0.595119138570802 a44.113295568143954,44.113295568143954 0 0,0 0.02599599239315384,-0.7568449544110866 l 23.092012080421824 0.9916703575460271" fill="#f8ff18" stroke="none" /><path d="M 79.01933749520258 99.09900007780938 l -20.994644952318115 -0.9016003886499301 a42.01399533488837,42.01399533488837 0 0,0 0.037129189237837944,-0.7202963520713833 l 20.976074173623708 1.2618685340980254" fill="#ffeb16" stroke="none" /><path d="M 79.06263194458094 98.37931529534042 l -39.78867378209093 -3.0798949918939083 a60.907697434188606,60.907697434188606 0 0,0 0.0896398227387017,-1.0417506176748004 l 39.729940336654494 3.762466656944389" fill="#36ff2f" stroke="none" /><path d="M 79.13060592940154 97.66154086499901 l -23.219895635364303 -2.601837738010101 a44.36521159613462,44.36521159613462 0 0,0 0.09130342323015757,-0.756123321661251 l 23.171810125874476 3.0000547365947883" fill="#f5ff19" stroke="none" /><path d="M 79.2786578344484 96.59031103205396 l -23.075883211354036 -3.7971278010248786 a44.386204598467174,44.386204598467174 0 0,0 0.130168214810649,-0.7507756721708365 l 23.007300179051153 4.192696506116308" fill="#f4ff19" stroke="none" /><path d="M 79.34024301695615 96.23510406497455 l -23.17252316058833 -4.222805637219477 a44.55414861712762,44.55414861712762 0 0,0 0.1435783062444159,-0.7512623686880661 l 23.096618562061753 4.6199705709408585" fill="#f2ff19" stroke="none" /><path d="M 79.407916724674 95.88100663000787 l -39.13250613768217 -7.82759719728928 a60.907697434188606,60.907697434188606 0 0,0 0.21387966843875753,-1.0234916387910027 l 38.99236875841905 8.498205287365693" fill="#36ff2f" stroke="none" /><path d="M 79.64726062577567 94.8264132398404 l -20.38664930320504 -5.1822065315027475 a42.03498833722092,42.03498833722092 0 0,0 0.18377400493369317,-0.6978198301341829 l 20.294685817466622 5.531406866009715" fill="#ffeb16" stroke="none" /><path d="M 79.83685265289637 94.1308016681162 l -20.196741394666287 -5.8789770695243915 a42.03498833722092,42.03498833722092 0 0,0 0.20762017518766962,-0.6911000383973755 l 20.092844899474986 6.22481471151249" fill="#ffeb16" stroke="none" /><path d="M 79.94057633289273 93.78553927170692 l -38.12025763862471 -11.809753260065117 a60.907697434188606,60.907697434188606 0 0,0 0.3179825104547663,-0.9960756850217017 l 37.911910412392686 12.46239797877821" fill="#36ff2f" stroke="none" /><path d="M 80.05021161711548 93.44210830539832 l -19.983026950666734 -6.568817872033542 a42.03498833722092,42.03498833722092 0 0,0 0.23122161699926808,-0.6835656252694805 l 19.867319912095102 6.910885171777184" fill="#ffeb16" stroke="none" /><path d="M 80.41425534168474 92.42381321644754 l -19.598797470483422 -7.5812358917054405 a42.01399533488837,42.01399533488837 0 0,0 0.26597124808508726,-0.6704212904530653 l 19.465767547432204 7.916558199372088" fill="#ffeb16" stroke="none" /><line stroke="#e1ed5e" stroke-width="0.3" x1="26.387840678322718" x2="22.05771365940052" y1="57.49999999999999" y2="54.99999999999999" /><path d="M 25.521815274538284 56.99999999999999 a86.0,86.0 0 0,1 29.574782752854787,-30.34633250058573" fill="none" id="id59" stroke="none" /><text fill="#e1ed5e" style="font-size:6.75px; font-family:Arial;" text-anchor="middle"><textPath startOffset="21.40746469413373" xlink:href="#id59">November</textPath></text><line stroke="#e1ed5e" stroke-width="0.3" x1="56.869717070023135" x2="54.33264160355391" y1="26.7553504044142" y2="22.446841604673864" /><path d="M 56.362301976729285 25.89364864446614 a86.0,86.0 0 0,1 42.16139366436587,-11.88097634709845" fill="none" id="id60" stroke="none" /><text fill="#e1ed5e" style="font-size:6.75px; font-family:Arial;" text-anchor="middle"><textPath startOffset="22.145653131862474" xlink:href="#id60">December</textPath></text></svg>